ply
format ascii 1.0
comment Created by Blender 2.80 (sub 75) - www.blender.org, source file: 'timeline_controls.blend'
element vertex 22
property float x
property float y
property float z
property float nx
property float ny
property float nz
property float s
property float t
property uchar red
property uchar green
property uchar blue
property uchar alpha
element face 18
property list uchar uint vertex_indices
end_header
0.330778 0.166229 0.000000 -0.000000 -0.000000 -1.000000 0.333333 0.171979 243 255 241 255
0.330778 0.499563 0.000000 -0.000000 -0.000000 -1.000000 0.000000 0.171979 163 163 163 255
0.502756 0.499563 0.000000 -0.000000 -0.000000 -1.000000 0.000000 0.000000 163 163 163 255
0.502756 0.166229 0.000000 -0.000000 0.000000 -1.000000 0.333333 0.000000 243 255 241 255
0.131247 -0.498728 0.000000 -0.000000 -0.000000 -1.000000 1.000000 0.336352 163 163 163 255
0.131247 -0.239430 0.000000 -0.000000 -0.000000 -1.000000 0.661211 0.298079 255 255 255 255
0.210352 -0.239430 0.000000 -0.000000 -0.000000 -1.000000 0.661211 0.298079 213 213 213 255
0.210352 -0.498728 0.000000 -0.000000 0.000000 -1.000000 1.000000 0.336352 163 163 163 255
-0.272874 -0.000437 0.000000 0.000000 0.000000 -1.000000 0.355842 0.775630 255 255 255 255
-0.497244 -0.163700 0.000000 0.000000 0.000000 -1.000000 1.000000 1.000000 163 163 163 255
-0.497244 0.162825 0.000000 0.000000 0.000000 -1.000000 0.000000 1.000000 163 163 163 255
0.131247 0.238555 0.000000 -0.000000 -0.000000 -1.000000 0.343154 0.298079 255 255 255 255
0.131247 0.497853 0.000000 -0.000000 -0.000000 -1.000000 0.000000 0.336352 163 163 163 255
0.210353 0.497853 0.000000 -0.000000 -0.000000 -1.000000 0.000000 0.336352 162 162 162 255
0.210353 0.238555 0.000000 -0.000000 0.000000 -1.000000 0.343154 0.298079 193 193 193 255
0.131247 -0.239430 0.000000 0.000000 0.000000 -1.000000 0.739795 0.298079 255 255 255 255
-0.272874 -0.000437 0.000000 0.000000 0.000000 -1.000000 0.644158 0.775630 255 255 255 255
0.210352 -0.239430 0.000000 -0.000000 0.000000 -1.000000 0.739795 0.298079 213 213 213 255
0.330778 -0.500437 0.000000 -0.000000 -0.000000 -1.000000 1.000000 0.171979 163 163 163 255
0.330778 -0.167104 0.000000 -0.000000 -0.000000 -1.000000 0.666667 0.171979 243 255 241 255
0.502756 -0.167104 0.000000 -0.000000 -0.000000 -1.000000 0.666667 0.000000 243 255 241 255
0.502756 -0.500437 0.000000 -0.000000 0.000000 -1.000000 1.000000 0.000000 163 163 163 255
3 0 1 2
3 0 2 3
3 4 5 6
3 4 6 7
3 8 5 4
3 8 4 9
3 8 9 10
3 11 12 13
3 11 13 14
3 11 15 16
3 12 11 16
3 12 16 10
3 15 11 14
3 15 14 17
3 18 19 20
3 18 20 21
3 19 0 3
3 19 3 20
