ply
format ascii 1.0
comment Created by Blender 2.80 (sub 75) - www.blender.org, source file: ''
element vertex 12
property float x
property float y
property float z
property float nx
property float ny
property float nz
property float s
property float t
property uchar red
property uchar green
property uchar blue
property uchar alpha
element face 10
property list uchar uint vertex_indices
end_header
0.328725 0.275193 0.000000 0.000000 0.000000 -1.000000 0.230370 0.119144 255 255 255 255
0.328725 -0.276068 0.000000 0.000000 0.000000 -1.000000 0.775630 0.119144 255 255 255 255
-0.275149 -0.000437 0.000000 0.000000 0.000000 -1.000000 0.644158 0.775630 255 255 255 255
0.328503 0.499563 0.000000 -0.000000 -0.000000 -1.000000 0.000000 0.171979 163 163 163 255
0.500481 0.499563 0.000000 -0.000000 -0.000000 -1.000000 0.000000 0.000000 163 163 163 255
0.328725 -0.276068 0.000000 0.000000 -0.000000 -1.000000 0.775630 0.224370 255 255 255 255
0.328725 0.275193 0.000000 0.000000 -0.000000 -1.000000 0.224370 0.224370 255 255 255 255
0.500481 -0.500437 0.000000 -0.000000 0.000000 -1.000000 1.000000 0.000000 163 163 163 255
-0.275149 -0.000437 0.000000 0.000000 0.000000 -1.000000 0.355842 0.775630 255 255 255 255
0.328503 -0.500437 0.000000 0.000000 0.000000 -1.000000 1.000000 0.171979 163 163 163 255
-0.499519 -0.087576 0.000000 0.000000 0.000000 -1.000000 1.000000 1.000000 163 163 163 255
-0.499519 0.086702 0.000000 0.000000 0.000000 -1.000000 0.000000 1.000000 163 163 163 255
3 0 1 2
3 0 3 4
3 5 6 4
3 5 4 7
3 8 1 9
3 8 9 10
3 8 10 11
3 0 2 11
3 0 11 3
3 5 7 9
