ply
format ascii 1.0
comment Created by Blender 2.80 (sub 75) - www.blender.org, source file: ''
element vertex 23
property float x
property float y
property float z
property float nx
property float ny
property float nz
property float s
property float t
property uchar red
property uchar green
property uchar blue
property uchar alpha
element face 22
property list uchar uint vertex_indices
end_header
0.357476 0.348058 0.000000 0.000000 0.000000 -1.000000 0.158490 0.134324 255 255 255 255
0.357476 -0.348932 0.000000 0.000000 0.000000 -1.000000 0.841510 0.134324 255 255 255 255
-0.327229 -0.039295 0.000000 0.000000 0.000000 -1.000000 0.093828 0.887397 255 255 255 255
-0.327229 0.038420 0.000000 0.000000 -0.000000 -1.000000 0.017672 0.887397 255 255 255 255
0.328941 0.499563 0.000000 -0.000000 -0.000000 -1.000000 0.000000 0.171979 130 130 130 255
0.500920 0.499563 0.000000 -0.000000 -0.000000 -1.000000 0.000000 0.000000 130 130 130 255
0.357476 -0.348932 0.000000 0.000000 -0.000000 -1.000000 0.848495 0.151505 255 255 255 255
0.357476 0.348058 0.000000 0.000000 -0.000000 -1.000000 0.151505 0.151505 255 255 255 255
0.500920 -0.500437 0.000000 -0.000000 0.000000 -1.000000 1.000000 0.000000 130 130 130 255
-0.327229 -0.163797 0.000000 0.000000 0.000000 -1.000000 1.000000 0.847135 183 183 183 255
-0.327229 -0.346392 0.000000 0.000000 0.000000 -1.000000 1.000000 0.847135 145 145 145 255
-0.499080 -0.257886 0.000000 0.000000 0.000000 -1.000000 1.000000 1.000000 145 145 145 255
-0.499080 -0.087576 0.000000 0.000000 0.000000 -1.000000 1.000000 1.000000 175 175 175 255
-0.327229 0.162922 0.000000 0.000000 0.000000 -1.000000 0.000000 0.847135 183 183 183 255
0.328941 -0.500437 0.000000 0.000000 0.000000 -1.000000 1.000000 0.171979 130 130 130 255
-0.499080 0.086702 0.000000 0.000000 0.000000 -1.000000 0.000000 1.000000 175 175 175 255
-0.327229 -0.039295 0.000000 -0.000000 0.000000 -1.000000 0.982328 0.887397 255 255 255 255
-0.499080 0.247205 0.000000 0.000000 -0.000000 -1.000000 0.000000 1.000000 145 145 145 255
-0.327229 0.326554 0.000000 0.000000 -0.000000 -1.000000 0.000000 0.847135 145 145 145 255
-0.327229 -0.496801 0.000000 0.000000 0.000000 -1.000000 1.000000 0.847135 130 130 130 255
-0.499080 -0.496801 0.000000 0.000000 0.000000 -1.000000 1.000000 1.000000 130 130 130 255
-0.499080 0.495926 0.000000 0.000000 0.000000 -1.000000 0.000000 1.000000 130 130 130 255
-0.327229 0.495926 0.000000 -0.000000 -0.000000 -1.000000 0.000000 0.847135 130 130 130 255
3 0 1 2
3 0 2 3
3 0 4 5
3 6 7 5
3 6 5 8
3 9 10 11
3 9 11 12
3 0 3 13
3 0 13 4
3 6 8 14
3 13 3 15
3 12 16 9
3 3 16 12
3 3 12 15
3 9 16 1
3 9 1 14
3 15 17 18
3 15 18 13
3 11 10 19
3 11 19 20
3 18 17 21
3 18 21 22
