ply
format ascii 1.0
comment Created by Blender 2.80 (sub 75) - www.blender.org, source file: 'finish.blend'
element vertex 232
property float x
property float y
property float z
property float nx
property float ny
property float nz
property float s
property float t
property uchar red
property uchar green
property uchar blue
property uchar alpha
element face 156
property list uchar uint vertex_indices
end_header
-0.714286 0.353360 -0.049479 0.000000 -0.000000 1.000000 0.142857 0.857143 137 137 137 255
-0.428571 0.353360 -0.049479 0.000000 -0.000000 1.000000 0.285714 0.857143 255 255 255 255
-0.428571 0.639074 -0.049479 0.000000 -0.000000 1.000000 0.285714 1.000000 255 255 255 255
-0.714286 0.639074 -0.049479 0.000000 -0.000000 1.000000 0.142857 1.000000 138 138 138 255
-0.142857 0.353360 -0.049479 0.000000 -0.000000 1.000000 0.428571 0.857143 255 255 255 255
0.142857 0.353360 -0.049479 0.000000 -0.000000 1.000000 0.571429 0.857143 255 255 255 255
0.142857 0.639074 -0.049479 0.000000 -0.000000 1.000000 0.571429 1.000000 255 255 255 255
-0.142857 0.639074 -0.049479 0.000000 -0.000000 1.000000 0.428571 1.000000 255 255 255 255
0.428571 0.353360 -0.049479 0.000000 -0.000000 1.000000 0.714286 0.857143 255 255 255 255
0.714286 0.353360 -0.049479 0.000000 -0.000000 1.000000 0.857143 0.857143 255 255 255 255
0.714286 0.639074 -0.049479 0.000000 -0.000000 1.000000 0.857143 1.000000 255 255 255 255
0.428571 0.639074 -0.049479 0.000000 -0.000000 1.000000 0.714286 1.000000 255 255 255 255
-0.142857 -0.503783 -0.255635 -0.000000 -0.000000 -1.000000 0.428571 0.428571 20 20 20 255
-0.142857 -0.218068 -0.255635 -0.000000 -0.000000 -1.000000 0.428571 0.571429 26 26 26 255
0.142857 -0.218068 -0.255635 -0.000000 -0.000000 -1.000000 0.571429 0.571429 20 20 20 255
0.142857 -0.503783 -0.255635 -0.000000 0.000000 -1.000000 0.571429 0.428571 20 20 20 255
-0.428571 -0.218068 -0.255635 0.000000 0.000000 -1.000000 0.285714 0.571429 20 20 20 255
-0.428571 0.067646 -0.255635 0.000000 0.000000 -1.000000 0.285714 0.714286 20 20 20 255
-0.142857 0.067646 -0.255635 0.000000 0.000000 -1.000000 0.428571 0.714286 25 25 25 255
-0.714286 -0.218068 -0.049479 0.000000 -0.000000 1.000000 0.142857 0.571429 129 129 129 255
-0.428571 -0.218068 -0.049479 0.000000 -0.000000 1.000000 0.285714 0.571429 255 255 255 255
-0.428571 0.067646 -0.049479 0.000000 -0.000000 1.000000 0.285714 0.714286 255 255 255 255
-0.714286 0.067646 -0.049479 0.000000 -0.000000 1.000000 0.142857 0.714286 135 135 135 255
-0.714286 0.067646 -0.255635 -0.000000 -0.000000 -1.000000 0.142857 0.714286 14 14 14 255
-0.714286 0.353360 -0.255635 -0.000000 -0.000000 -1.000000 0.142857 0.857143 14 14 14 255
-0.428571 0.353360 -0.255635 -0.000000 -0.000000 -1.000000 0.285714 0.857143 20 20 20 255
-0.428571 -0.503783 -0.049479 0.000000 -0.000000 1.000000 0.285714 0.428571 255 255 255 255
-0.142857 -0.503783 -0.049479 0.000000 -0.000000 1.000000 0.428571 0.428571 255 255 255 255
-0.142857 -0.218068 -0.049479 0.000000 -0.000000 1.000000 0.428571 0.571429 255 255 255 255
-0.142857 0.067646 -0.049479 0.000000 -0.000000 1.000000 0.428571 0.714286 255 255 255 255
-0.714286 -0.503783 -0.255635 -0.000000 -0.000000 -1.000000 0.142857 0.428571 13 13 13 255
-0.714286 -0.218068 -0.255635 -0.000000 -0.000000 -1.000000 0.142857 0.571429 11 11 11 255
-0.428571 -0.503783 -0.255635 -0.000000 0.000000 -1.000000 0.285714 0.428571 20 20 20 255
0.142857 -0.218068 -0.049479 0.000000 -0.000000 1.000000 0.571429 0.571429 255 255 255 255
0.142857 0.067646 -0.049479 0.000000 -0.000000 1.000000 0.571429 0.714286 255 255 255 255
0.142857 0.353360 -0.255635 -0.000000 -0.000000 -1.000000 0.571429 0.857143 20 20 20 255
0.142857 0.639074 -0.255635 -0.000000 -0.000000 -1.000000 0.571429 1.000000 20 20 20 255
0.428571 0.639074 -0.255635 -0.000000 -0.000000 -1.000000 0.714286 1.000000 20 20 20 255
0.428571 0.353360 -0.255635 -0.000000 0.000000 -1.000000 0.714286 0.857143 20 20 20 255
0.142857 -0.503783 -0.049479 0.000000 -0.000000 1.000000 0.571429 0.428571 255 255 255 255
0.428571 -0.503783 -0.049479 0.000000 -0.000000 1.000000 0.714286 0.428571 255 255 255 255
0.428571 -0.218068 -0.049479 0.000000 -0.000000 1.000000 0.714286 0.571429 255 255 255 255
0.428571 0.067646 -0.049479 0.000000 -0.000000 1.000000 0.714286 0.714286 255 255 255 255
-0.428571 0.639074 -0.255635 -0.000000 -0.000000 -1.000000 0.285714 1.000000 21 21 21 255
-0.142857 0.639074 -0.255635 -0.000000 -0.000000 -1.000000 0.428571 1.000000 20 20 20 255
-0.142857 0.353360 -0.255635 -0.000000 0.000000 -1.000000 0.428571 0.857143 20 20 20 255
-0.714286 -0.559259 -0.000898 0.000000 -0.000000 1.000000 0.142857 0.333401 153 153 153 255
-1.000000 -0.559259 -0.000898 0.000000 -0.000000 1.000000 0.000000 0.333401 148 148 148 255
-1.000000 -0.920291 -0.000898 0.000000 -0.000000 1.000000 0.000000 0.142857 133 133 133 255
-0.714286 -0.920291 -0.000898 0.000000 -0.000000 1.000000 0.142857 0.142857 133 133 133 255
0.714286 -0.218068 -0.049479 0.000000 -0.000000 1.000000 0.857143 0.571429 255 255 255 255
0.714286 0.067646 -0.049479 0.000000 -0.000000 1.000000 0.857143 0.714286 255 255 255 255
0.714286 0.353360 -0.255635 -0.000000 -0.000000 -1.000000 0.857143 0.857143 20 20 20 255
0.714286 0.639074 -0.255635 -0.000000 -0.000000 -1.000000 0.857143 1.000000 21 21 21 255
1.000000 0.639074 -0.255635 -0.000000 -0.000000 -1.000000 1.000000 1.000000 31 31 31 255
1.000000 0.353360 -0.255635 -0.000000 0.000000 -1.000000 1.000000 0.857143 31 31 31 255
0.714286 -0.503783 -0.049479 0.000000 -0.000000 1.000000 0.857143 0.428571 255 255 255 255
1.000000 -0.503783 -0.049479 0.000000 -0.000000 1.000000 1.000000 0.428571 255 255 255 255
1.000000 -0.218068 -0.049479 0.000000 -0.000000 1.000000 1.000000 0.571429 255 255 255 255
1.000000 0.067646 -0.049479 0.000000 -0.000000 1.000000 1.000000 0.714286 255 255 255 255
1.000000 0.353360 -0.049479 0.000000 -0.000000 1.000000 1.000000 0.857143 255 255 255 255
0.142857 0.067646 -0.255635 -0.000000 0.000000 -1.000000 0.571429 0.714286 21 21 21 255
0.428571 0.067646 -0.255635 0.000000 0.000000 -1.000000 0.714286 0.714286 20 20 20 255
0.428571 -0.218068 -0.255635 0.000000 0.000000 -1.000000 0.714286 0.571429 20 20 20 255
0.428571 -0.503783 -0.255635 -0.000000 -0.000000 -1.000000 0.714286 0.428571 20 20 20 255
0.714286 -0.218068 -0.255635 -0.000000 -0.000000 -1.000000 0.857143 0.571429 20 20 20 255
0.714286 -0.503783 -0.255635 -0.000000 0.000000 -1.000000 0.857143 0.428571 20 20 20 255
0.714286 0.067646 -0.255635 -0.000000 0.000000 -1.000000 0.857143 0.714286 20 20 20 255
1.000000 0.067646 -0.255635 0.000000 0.000000 -1.000000 1.000000 0.714286 20 20 20 255
1.000000 -0.218068 -0.255635 0.000000 0.000000 -1.000000 1.000000 0.571429 20 20 20 255
-0.714286 0.353360 -0.255635 -0.000000 -0.000000 -1.000000 0.142857 0.857143 138 138 138 255
-0.714286 0.639074 -0.255635 -0.000000 -0.000000 -1.000000 0.142857 1.000000 138 138 138 255
-0.428571 0.639074 -0.255635 -0.000000 -0.000000 -1.000000 0.285714 1.000000 255 255 255 255
-0.428571 0.353360 -0.255635 -0.000000 0.000000 -1.000000 0.285714 0.857143 255 255 255 255
-0.142857 0.353360 -0.255635 -0.000000 -0.000000 -1.000000 0.428571 0.857143 255 255 255 255
-0.142857 0.639074 -0.255635 -0.000000 -0.000000 -1.000000 0.428571 1.000000 255 255 255 255
0.142857 0.639074 -0.255635 -0.000000 -0.000000 -1.000000 0.571429 1.000000 255 255 255 255
0.142857 0.353360 -0.255635 -0.000000 0.000000 -1.000000 0.571429 0.857143 255 255 255 255
0.428571 0.353360 -0.255635 -0.000000 -0.000000 -1.000000 0.714286 0.857143 255 255 255 255
0.428571 0.639074 -0.255635 -0.000000 -0.000000 -1.000000 0.714286 1.000000 255 255 255 255
0.714286 0.639074 -0.255635 -0.000000 -0.000000 -1.000000 0.857143 1.000000 255 255 255 255
0.714286 0.353360 -0.255635 -0.000000 0.000000 -1.000000 0.857143 0.857143 255 255 255 255
-0.714286 -0.218068 -0.255635 0.000000 0.000000 -1.000000 0.142857 0.571429 138 138 138 255
-0.714286 0.067646 -0.255635 0.000000 0.000000 -1.000000 0.142857 0.714286 138 138 138 255
-0.428571 0.067646 -0.255635 0.000000 0.000000 -1.000000 0.285714 0.714286 250 250 250 255
-0.428571 -0.218068 -0.255635 0.000000 0.000000 -1.000000 0.285714 0.571429 254 254 254 255
-0.428571 -0.503783 -0.255635 -0.000000 -0.000000 -1.000000 0.285714 0.428571 255 255 255 255
-0.142857 -0.218068 -0.255635 -0.000000 -0.000000 -1.000000 0.428571 0.571429 255 255 255 255
-0.142857 -0.503783 -0.255635 -0.000000 0.000000 -1.000000 0.428571 0.428571 255 255 255 255
-0.142857 0.067646 -0.255635 -0.000000 0.000000 -1.000000 0.428571 0.714286 255 255 255 255
0.142857 0.067646 -0.255635 0.000000 0.000000 -1.000000 0.571429 0.714286 255 255 255 255
0.142857 -0.218068 -0.255635 0.000000 0.000000 -1.000000 0.571429 0.571429 255 255 255 255
0.142857 -0.503783 -0.255635 -0.000000 -0.000000 -1.000000 0.571429 0.428571 255 255 255 255
0.428571 -0.218068 -0.255635 -0.000000 -0.000000 -1.000000 0.714286 0.571429 255 255 255 255
0.428571 -0.503783 -0.255635 -0.000000 0.000000 -1.000000 0.714286 0.428571 255 255 255 255
0.428571 0.067646 -0.255635 -0.000000 0.000000 -1.000000 0.714286 0.714286 255 255 255 255
0.714286 0.067646 -0.255635 0.000000 0.000000 -1.000000 0.857143 0.714286 255 255 255 255
0.714286 -0.218068 -0.255635 0.000000 0.000000 -1.000000 0.857143 0.571429 255 255 255 255
0.714286 -0.503783 -0.255635 -0.000000 -0.000000 -1.000000 0.857143 0.428571 255 255 255 255
1.000000 -0.218068 -0.255635 -0.000000 -0.000000 -1.000000 1.000000 0.571429 255 255 255 255
1.000000 -0.503783 -0.255635 -0.000000 0.000000 -1.000000 1.000000 0.428571 255 255 255 255
1.000000 0.353360 -0.255635 -0.000000 -0.000000 -1.000000 1.000000 0.857143 255 255 255 255
1.000000 0.067646 -0.255635 -0.000000 0.000000 -1.000000 1.000000 0.714286 255 255 255 255
0.714286 0.639074 -0.049479 0.000000 1.000000 0.000000 0.857143 1.000000 255 255 255 255
0.714286 0.639074 -0.255635 0.000000 1.000000 0.000000 0.857143 1.000000 255 255 255 255
0.428571 0.639074 -0.255635 0.000000 1.000000 0.000000 0.714286 1.000000 255 255 255 255
0.428571 0.639074 -0.049479 -0.000000 1.000000 0.000000 0.714286 1.000000 255 255 255 255
0.142857 0.639074 -0.049479 0.000000 1.000000 0.000000 0.571429 1.000000 255 255 255 255
0.142857 0.639074 -0.255635 0.000000 1.000000 0.000000 0.571429 1.000000 255 255 255 255
-0.142857 0.639074 -0.255635 0.000000 1.000000 0.000000 0.428571 1.000000 255 255 255 255
-0.142857 0.639074 -0.049479 -0.000000 1.000000 0.000000 0.428571 1.000000 255 255 255 255
1.000000 0.639074 -0.255635 -0.000000 1.000000 0.000000 1.000000 1.000000 31 31 31 255
0.714286 0.639074 -0.255635 -0.000000 1.000000 0.000000 0.857143 1.000000 21 21 21 255
0.714286 0.639074 -0.049479 -0.000000 1.000000 0.000000 0.857143 1.000000 21 21 21 255
1.000000 0.639074 -0.049479 0.000000 1.000000 0.000000 1.000000 1.000000 31 31 31 255
-0.428571 0.639074 -0.049479 0.000000 1.000000 0.000000 0.285714 1.000000 255 255 255 255
-0.428571 0.639074 -0.255635 0.000000 1.000000 0.000000 0.285714 1.000000 255 255 255 255
-0.714286 0.639074 -0.255635 0.000000 1.000000 0.000000 0.142857 1.000000 138 138 138 255
-0.714286 0.639074 -0.049479 -0.000000 1.000000 0.000000 0.142857 1.000000 138 138 138 255
0.142857 -0.503783 -0.049479 0.000000 -1.000000 0.000000 0.571429 0.428571 255 255 255 255
0.142857 -0.503783 -0.255635 0.000000 -1.000000 0.000000 0.571429 0.428571 255 255 255 255
0.428571 -0.503783 -0.255635 0.000000 -1.000000 0.000000 0.714286 0.428571 255 255 255 255
0.428571 -0.503783 -0.049479 -0.000000 -1.000000 -0.000000 0.714286 0.428571 255 255 255 255
0.428571 -0.503783 -0.255635 -0.000000 -1.000000 -0.000000 0.714286 0.428571 20 20 20 255
0.714286 -0.503783 -0.255635 -0.000000 -1.000000 -0.000000 0.857143 0.428571 20 20 20 255
0.714286 -0.503783 -0.049479 -0.000000 -1.000000 -0.000000 0.857143 0.428571 20 20 20 255
0.428571 -0.503783 -0.049479 0.000000 -1.000000 -0.000000 0.714286 0.428571 20 20 20 255
-0.714286 -0.503783 -0.255635 -0.000000 -1.000000 -0.000000 0.142857 0.428571 13 13 13 255
-0.428571 -0.503783 -0.255635 -0.000000 -1.000000 -0.000000 0.285714 0.428571 20 20 20 255
-0.428571 -0.503783 -0.049479 -0.000000 -1.000000 -0.000000 0.285714 0.428571 20 20 20 255
-0.714286 -0.503783 -0.049479 0.000000 -1.000000 -0.000000 0.142857 0.428571 13 13 13 255
-0.714286 0.703776 -0.000898 0.000000 1.000000 0.000000 0.142857 1.000000 222 222 222 255
-0.714286 0.703776 -0.309145 0.000000 1.000000 0.000000 0.142857 1.000000 222 222 222 255
-1.000000 0.703776 -0.309145 0.000000 1.000000 0.000000 0.000000 1.000000 201 201 201 255
-1.000000 0.703776 -0.000898 -0.000000 1.000000 0.000000 0.000000 1.000000 201 201 201 255
1.000000 0.353360 -0.255635 1.000000 0.000000 0.000000 1.000000 0.857143 31 31 31 255
1.000000 0.639074 -0.255635 1.000000 0.000000 0.000000 1.000000 1.000000 31 31 31 255
1.000000 0.639074 -0.049479 1.000000 0.000000 0.000000 1.000000 1.000000 31 31 31 255
1.000000 0.353360 -0.049479 1.000000 -0.000000 0.000000 1.000000 0.857143 31 31 31 255
0.714286 -0.218068 -0.049479 0.000000 -0.000000 1.000000 0.857143 0.571429 20 20 20 255
1.000000 -0.218068 -0.049479 0.000000 -0.000000 1.000000 1.000000 0.571429 20 20 20 255
1.000000 0.067646 -0.049479 0.000000 -0.000000 1.000000 1.000000 0.714286 20 20 20 255
0.714286 0.067646 -0.049479 0.000000 -0.000000 1.000000 0.857143 0.714286 20 20 20 255
0.428571 0.067646 -0.049479 0.000000 -0.000000 1.000000 0.714286 0.714286 20 20 20 255
0.714286 0.353360 -0.049479 0.000000 -0.000000 1.000000 0.857143 0.857143 20 20 20 255
0.428571 0.353360 -0.049479 0.000000 -0.000000 1.000000 0.714286 0.857143 20 20 20 255
0.428571 -0.503783 -0.049479 0.000000 -0.000000 1.000000 0.714286 0.428571 20 20 20 255
0.714286 -0.503783 -0.049479 0.000000 -0.000000 1.000000 0.857143 0.428571 20 20 20 255
0.428571 -0.218068 -0.049479 0.000000 -0.000000 1.000000 0.714286 0.571429 20 20 20 255
-0.428571 -0.503783 -0.049479 0.000000 -1.000000 0.000000 0.285714 0.428571 255 255 255 255
-0.428571 -0.503783 -0.255635 0.000000 -1.000000 0.000000 0.285714 0.428571 255 255 255 255
-0.142857 -0.503783 -0.255635 0.000000 -1.000000 0.000000 0.428571 0.428571 255 255 255 255
-0.142857 -0.503783 -0.049479 -0.000000 -1.000000 -0.000000 0.428571 0.428571 255 255 255 255
0.142857 -0.218068 -0.049479 0.000000 -0.000000 1.000000 0.571429 0.571429 20 20 20 255
0.142857 0.067646 -0.049479 0.000000 -0.000000 1.000000 0.571429 0.714286 21 21 21 255
-0.142857 0.067646 -0.049479 0.000000 -0.000000 1.000000 0.428571 0.714286 25 25 25 255
0.142857 0.353360 -0.049479 0.000000 -0.000000 1.000000 0.571429 0.857143 20 20 20 255
-0.142857 0.353360 -0.049479 0.000000 -0.000000 1.000000 0.428571 0.857143 20 20 20 255
1.000000 0.353360 -0.049479 0.000000 -0.000000 1.000000 1.000000 0.857143 31 31 31 255
1.000000 0.639074 -0.049479 0.000000 -0.000000 1.000000 1.000000 1.000000 31 31 31 255
0.714286 0.639074 -0.049479 0.000000 -0.000000 1.000000 0.857143 1.000000 21 21 21 255
-0.428571 0.353360 -0.049479 0.000000 -0.000000 1.000000 0.285714 0.857143 20 20 20 255
-0.142857 0.639074 -0.049479 0.000000 -0.000000 1.000000 0.428571 1.000000 20 20 20 255
-0.428571 0.639074 -0.049479 0.000000 -0.000000 1.000000 0.285714 1.000000 21 21 21 255
0.428571 0.639074 -0.049479 0.000000 -0.000000 1.000000 0.714286 1.000000 20 20 20 255
0.142857 0.639074 -0.049479 0.000000 -0.000000 1.000000 0.571429 1.000000 20 20 20 255
-0.714286 -0.503783 -0.049479 0.000000 -0.000000 1.000000 0.142857 0.428571 13 13 13 255
-0.428571 -0.503783 -0.049479 0.000000 -0.000000 1.000000 0.285714 0.428571 20 20 20 255
-0.428571 -0.218068 -0.049479 0.000000 -0.000000 1.000000 0.285714 0.571429 20 20 20 255
-0.714286 -0.218068 -0.049479 0.000000 -0.000000 1.000000 0.142857 0.571429 11 11 11 255
-0.714286 0.067646 -0.049479 0.000000 -0.000000 1.000000 0.142857 0.714286 14 14 14 255
-0.428571 0.067646 -0.049479 0.000000 -0.000000 1.000000 0.285714 0.714286 20 20 20 255
-0.714286 0.353360 -0.049479 0.000000 -0.000000 1.000000 0.142857 0.857143 14 14 14 255
-0.142857 -0.218068 -0.049479 0.000000 -0.000000 1.000000 0.428571 0.571429 26 26 26 255
1.000000 -0.503783 -0.049479 1.000000 0.000000 -0.000000 1.000000 0.428571 255 255 255 255
1.000000 -0.503783 -0.255635 1.000000 0.000000 -0.000000 1.000000 0.428571 255 255 255 255
1.000000 -0.218068 -0.255635 1.000000 0.000000 -0.000000 1.000000 0.571429 255 255 255 255
1.000000 -0.218068 -0.049479 1.000000 0.000000 0.000000 1.000000 0.571429 255 255 255 255
-0.142857 -0.503783 -0.049479 0.000000 -0.000000 1.000000 0.428571 0.428571 20 20 20 255
0.142857 -0.503783 -0.049479 0.000000 -0.000000 1.000000 0.571429 0.428571 20 20 20 255
0.714286 -0.503783 -0.049479 0.000000 -1.000000 0.000000 0.857143 0.428571 255 255 255 255
0.714286 -0.503783 -0.255635 0.000000 -1.000000 0.000000 0.857143 0.428571 255 255 255 255
1.000000 -0.503783 -0.255635 0.000000 -1.000000 0.000000 1.000000 0.428571 255 255 255 255
1.000000 -0.503783 -0.049479 -0.000000 -1.000000 -0.000000 1.000000 0.428571 255 255 255 255
1.000000 0.067646 -0.049479 1.000000 0.000000 -0.000000 1.000000 0.714286 255 255 255 255
1.000000 0.067646 -0.255635 1.000000 0.000000 -0.000000 1.000000 0.714286 255 255 255 255
1.000000 0.353360 -0.255635 1.000000 0.000000 -0.000000 1.000000 0.857143 255 255 255 255
1.000000 0.353360 -0.049479 1.000000 0.000000 0.000000 1.000000 0.857143 255 255 255 255
-0.714286 -0.559259 -0.309145 0.000000 0.000000 -1.000000 0.142857 0.333401 153 153 153 255
-0.714286 -0.920291 -0.309145 0.000000 0.000000 -1.000000 0.142857 0.142857 133 133 133 255
-1.000000 -0.920291 -0.309145 0.000000 0.000000 -1.000000 0.000000 0.142857 133 133 133 255
-1.000000 -0.559259 -0.309145 0.000000 0.000000 -1.000000 0.000000 0.333401 148 148 148 255
-0.142857 0.639074 -0.255635 -0.000000 1.000000 0.000000 0.428571 1.000000 20 20 20 255
-0.428571 0.639074 -0.255635 -0.000000 1.000000 0.000000 0.285714 1.000000 21 21 21 255
-0.428571 0.639074 -0.049479 -0.000000 1.000000 0.000000 0.285714 1.000000 21 21 21 255
-0.142857 0.639074 -0.049479 0.000000 1.000000 0.000000 0.428571 1.000000 20 20 20 255
-0.142857 -0.503783 -0.255635 -0.000000 -1.000000 -0.000000 0.428571 0.428571 20 20 20 255
0.142857 -0.503783 -0.255635 -0.000000 -1.000000 -0.000000 0.571429 0.428571 20 20 20 255
0.142857 -0.503783 -0.049479 -0.000000 -1.000000 -0.000000 0.571429 0.428571 20 20 20 255
-0.142857 -0.503783 -0.049479 0.000000 -1.000000 -0.000000 0.428571 0.428571 20 20 20 255
1.000000 -0.218068 -0.255635 1.000000 0.000000 0.000000 1.000000 0.571429 20 20 20 255
1.000000 0.067646 -0.255635 1.000000 0.000000 0.000000 1.000000 0.714286 20 20 20 255
1.000000 0.067646 -0.049479 1.000000 0.000000 0.000000 1.000000 0.714286 20 20 20 255
1.000000 -0.218068 -0.049479 1.000000 -0.000000 0.000000 1.000000 0.571429 20 20 20 255
-1.000000 -0.920291 -0.000898 0.000000 -1.000000 0.000000 0.000000 0.142857 133 133 133 255
-1.000000 -0.920291 -0.309145 0.000000 -1.000000 0.000000 0.000000 0.142857 133 133 133 255
-0.714286 -0.920291 -0.309145 0.000000 -1.000000 0.000000 0.142857 0.142857 133 133 133 255
-0.714286 -0.920291 -0.000898 -0.000000 -1.000000 -0.000000 0.142857 0.142857 133 133 133 255
-1.000000 -0.559259 -0.000898 -1.000000 0.000000 0.000000 0.000000 0.333401 148 148 148 255
-1.000000 -0.559259 -0.309145 -1.000000 0.000000 0.000000 0.000000 0.333401 148 148 148 255
-1.000000 -0.920291 -0.309145 -1.000000 0.000000 0.000000 0.000000 0.142857 133 133 133 255
-1.000000 -0.920291 -0.000898 -1.000000 0.000000 0.000000 0.000000 0.142857 133 133 133 255
0.428571 0.639074 -0.255635 -0.000000 1.000000 0.000000 0.714286 1.000000 20 20 20 255
0.142857 0.639074 -0.255635 -0.000000 1.000000 0.000000 0.571429 1.000000 20 20 20 255
0.142857 0.639074 -0.049479 -0.000000 1.000000 0.000000 0.571429 1.000000 20 20 20 255
0.428571 0.639074 -0.049479 0.000000 1.000000 0.000000 0.714286 1.000000 20 20 20 255
-0.714286 -0.492175 -0.049479 1.000000 0.000000 0.000000 0.142857 0.361933 84 84 84 255
-0.714286 -0.492175 -0.255635 1.000000 0.000000 0.000000 0.142857 0.361933 84 84 84 255
-0.714286 0.636693 -0.255635 1.000000 0.000000 0.000000 0.142857 0.971468 119 119 119 255
-0.714286 0.636692 -0.049479 1.000000 0.000000 0.000000 0.142857 0.971468 119 119 119 255
-0.714286 -0.920291 -0.000898 1.000000 0.000000 -0.000000 0.142857 0.142857 133 133 133 255
-0.714286 -0.920291 -0.309145 1.000000 0.000000 -0.000000 0.142857 0.142857 133 133 133 255
-0.714286 -0.559259 -0.309145 1.000000 0.000000 -0.000000 0.142857 0.333401 153 153 153 255
-0.714286 -0.559259 -0.000898 1.000000 0.000000 0.000000 0.142857 0.333401 153 153 153 255
-1.000000 0.703776 -0.000898 -1.000000 0.000000 0.000000 0.000000 1.000000 201 201 201 255
-1.000000 0.703776 -0.309145 -1.000000 0.000000 0.000000 0.000000 1.000000 201 201 201 255
-0.714286 0.703776 -0.309145 0.000000 0.000000 -1.000000 0.142857 1.000000 222 222 222 255
-1.000000 0.703776 -0.309145 0.000000 0.000000 -1.000000 0.000000 1.000000 201 201 201 255
-0.714286 0.703776 -0.000898 0.000000 -0.000000 1.000000 0.142857 1.000000 222 222 222 255
-1.000000 0.703776 -0.000898 0.000000 -0.000000 1.000000 0.000000 1.000000 201 201 201 255
-0.714286 0.703776 -0.309145 1.000000 0.000000 0.000000 0.142857 1.000000 222 222 222 255
-0.714286 0.703776 -0.000898 1.000000 0.000000 0.000000 0.142857 1.000000 222 222 222 255
3 0 1 2
3 0 2 3
3 4 5 6
3 4 6 7
3 8 9 10
3 8 10 11
3 12 13 14
3 12 14 15
3 16 17 18
3 16 18 13
3 19 20 21
3 19 21 22
3 23 24 25
3 23 25 17
3 26 27 28
3 26 28 20
3 21 29 4
3 21 4 1
3 30 31 16
3 30 16 32
3 28 33 34
3 28 34 29
3 35 36 37
3 35 37 38
3 39 40 41
3 39 41 33
3 34 42 8
3 34 8 5
3 25 43 44
3 25 44 45
3 46 47 48
3 46 48 49
3 41 50 51
3 41 51 42
3 52 53 54
3 52 54 55
3 56 57 58
3 56 58 50
3 51 59 60
3 51 60 9
3 18 45 35
3 18 35 61
3 14 61 62
3 14 62 63
3 64 63 65
3 64 65 66
3 62 38 52
3 62 52 67
3 65 67 68
3 65 68 69
3 70 71 72
3 70 72 73
3 74 75 76
3 74 76 77
3 78 79 80
3 78 80 81
3 82 83 84
3 82 84 85
3 86 85 87
3 86 87 88
3 84 73 74
3 84 74 89
3 87 89 90
3 87 90 91
3 92 91 93
3 92 93 94
3 90 77 78
3 90 78 95
3 93 95 96
3 93 96 97
3 98 97 99
3 98 99 100
3 96 81 101
3 96 101 102
3 103 104 105
3 103 105 106
3 107 108 109
3 107 109 110
3 111 112 113
3 111 113 114
3 115 116 117
3 115 117 118
3 119 120 121
3 119 121 122
3 123 124 125
3 123 125 126
3 127 128 129
3 127 129 130
3 131 132 133
3 131 133 134
3 135 136 137
3 135 137 138
3 139 140 141
3 139 141 142
3 143 142 144
3 143 144 145
3 146 147 139
3 146 139 148
3 149 150 151
3 149 151 152
3 153 148 143
3 153 143 154
3 155 154 156
3 155 156 157
3 144 158 159
3 144 159 160
3 161 157 162
3 161 162 163
3 156 145 164
3 156 164 165
3 166 167 168
3 166 168 169
3 170 171 161
3 170 161 172
3 168 173 155
3 168 155 171
3 174 175 176
3 174 176 177
3 178 179 153
3 178 153 173
3 180 181 182
3 180 182 183
3 184 185 186
3 184 186 187
3 188 189 190
3 188 190 191
3 192 193 194
3 192 194 195
3 196 197 198
3 196 198 199
3 200 201 202
3 200 202 203
3 204 205 206
3 204 206 207
3 208 209 210
3 208 210 211
3 212 213 214
3 212 214 215
3 216 217 218
3 216 218 219
3 220 221 222
3 220 222 223
3 224 225 209
3 224 209 208
3 226 188 191
3 226 191 227
3 228 229 47
3 228 47 46
3 218 230 231
3 218 231 219
3 219 231 223
3 219 223 216
3 217 222 230
3 217 230 218
3 216 223 222
3 216 222 217