ply
format ascii 1.0
comment Created by Blender 2.80 (sub 75) - www.blender.org, source file: 'timeline_controls.blend'
element vertex 59
property float x
property float y
property float z
property float nx
property float ny
property float nz
property float s
property float t
property uchar red
property uchar green
property uchar blue
property uchar alpha
element face 79
property list uchar uint vertex_indices
end_header
-0.335644 -0.067668 0.000000 0.000000 0.000000 1.000000 0.000000 0.502660 28 225 53 255
-0.234973 -0.067668 0.000000 0.000000 0.000000 1.000000 1.000000 0.502660 34 255 58 255
-0.234973 0.182834 0.000000 0.000000 0.000000 1.000000 1.000000 0.754228 56 255 85 255
-0.335644 0.182833 0.000000 -0.000000 0.000000 1.000000 0.000000 0.754228 56 253 81 255
-0.335644 -0.497879 0.000000 0.000000 0.000000 1.000000 0.000000 0.000000 0 146 19 255
-0.234973 -0.497879 0.000000 0.000000 0.000000 1.000000 1.000000 0.000000 0 149 19 255
-0.213264 -0.067668 0.000000 -0.000000 0.000000 1.000000 1.000000 0.502660 10 68 16 255
-0.213264 0.182834 0.000000 -0.000000 0.000000 1.000000 1.000000 0.754228 15 68 23 255
-0.230709 0.182834 0.000000 -0.000000 0.000000 1.000000 1.000000 0.754228 15 68 23 255
-0.230709 -0.067668 0.000000 -0.000000 0.000000 1.000000 1.000000 0.502660 10 68 16 255
-0.230709 0.497879 0.000000 0.000000 -0.000000 1.000000 1.000000 1.000000 38 68 45 255
-0.213264 0.497879 0.000000 0.000000 0.000000 1.000000 1.000000 1.000000 38 68 45 255
-0.234973 0.497879 0.000000 0.000000 0.000000 1.000000 1.000000 1.000000 140 255 169 255
-0.335644 0.497879 0.000000 -0.000000 0.000000 1.000000 0.000000 1.000000 140 255 169 255
-0.136175 0.497879 0.000000 0.000000 -0.000000 1.000000 1.000000 1.000000 141 255 169 255
-0.136175 0.182834 0.000000 0.000000 -0.000000 1.000000 1.000000 0.698358 56 255 85 255
0.097052 0.182834 0.000000 0.000000 -0.000000 1.000000 1.000000 0.502660 56 255 85 255
0.097052 0.497879 0.000000 0.000000 0.000000 1.000000 1.000000 1.000000 144 255 169 255
-0.136175 -0.012035 0.000000 0.000000 0.000000 1.000000 1.000000 0.502660 39 255 64 255
0.257183 -0.221104 0.051150 0.000000 0.000000 1.000000 0.616536 0.000000 32 255 61 255
0.180360 -0.221104 0.051150 0.000000 0.000000 1.000000 0.383464 0.000000 32 255 61 255
0.180360 -0.367007 0.051150 0.000000 0.000000 1.000000 0.383464 0.000000 4 203 29 255
0.257183 -0.367007 0.051150 0.000000 -0.000000 1.000000 0.616536 0.000000 4 203 29 255
0.180360 -0.145124 0.051150 -0.000000 0.000000 1.000000 0.383465 1.000000 50 255 79 255
0.031091 -0.145124 0.051150 -0.000000 0.000000 1.000000 0.037265 0.850604 59 255 82 255
0.031091 -0.221104 0.051150 -0.000000 0.000000 1.000000 0.037265 0.149395 40 255 63 255
0.180360 -0.145124 0.051150 0.000000 0.000000 1.000000 0.383464 0.848444 52 255 81 255
0.180360 -0.221104 0.051150 0.000000 0.000000 1.000000 0.383464 0.151556 32 255 61 255
0.257183 -0.221104 0.051150 0.000000 0.000000 1.000000 0.616535 0.151556 32 255 61 255
0.257183 -0.145124 0.051150 0.000000 0.000000 1.000000 0.616535 0.848444 52 255 81 255
0.257183 -0.145124 0.051150 0.000000 0.000000 1.000000 0.616535 1.000000 50 255 79 255
0.257183 0.003581 0.051150 0.000000 0.000000 1.000000 0.616535 1.000000 108 255 135 255
0.180360 0.003581 0.051150 -0.000000 0.000000 1.000000 0.383464 1.000000 106 255 135 255
0.406452 -0.221104 0.051150 0.000000 0.000000 1.000000 0.962735 0.149395 36 255 63 255
0.406452 -0.145124 0.051150 0.000000 0.000000 1.000000 0.962735 0.850605 77 255 91 255
0.022706 -0.229488 0.051150 0.000000 0.000000 1.000000 0.018176 0.074656 13 86 21 255
0.022706 -0.136740 0.051150 0.000000 0.000000 1.000000 0.018176 0.925344 21 86 28 255
0.014567 -0.128600 0.051150 0.000000 0.000000 1.000000 0.000000 1.000000 21 86 29 255
0.014567 -0.237627 0.051150 -0.000000 0.000000 1.000000 0.000000 0.000000 13 86 20 255
0.414836 -0.229488 0.051150 0.000000 -0.000000 1.000000 0.981824 0.074656 11 86 20 255
0.265567 -0.229488 0.051150 0.000000 -0.000000 1.000000 0.641972 0.000000 10 86 20 255
0.273706 -0.237627 0.051150 0.000000 -0.000000 1.000000 0.666667 0.000000 9 86 19 255
0.422976 -0.237627 0.051150 0.000000 -0.000000 1.000000 1.000000 0.000000 9 86 19 255
0.414836 -0.136740 0.051150 0.000000 -0.000000 1.000000 0.981824 0.925344 28 86 32 255
0.422976 -0.128600 0.051150 0.000000 0.000000 1.000000 1.000000 1.000000 30 86 33 255
0.171976 -0.136740 0.051150 0.000000 0.000000 1.000000 0.358028 1.000000 18 86 28 255
0.163836 -0.128600 0.051150 0.000000 0.000000 1.000000 0.333333 1.000000 19 86 29 255
0.171976 -0.229488 0.051150 0.000000 0.000000 1.000000 0.358028 0.000000 10 86 20 255
0.163836 -0.237627 0.051150 0.000000 -0.000000 1.000000 0.333333 0.000000 9 86 19 255
0.265567 -0.136740 0.051150 0.000000 0.000000 1.000000 0.641972 1.000000 18 86 28 255
0.273706 -0.128600 0.051150 -0.000000 0.000000 1.000000 0.666667 1.000000 19 86 29 255
0.171976 0.011965 0.051150 0.000000 0.000000 1.000000 0.358028 1.000000 37 86 47 255
0.265567 0.011965 0.051150 0.000000 0.000000 1.000000 0.641972 1.000000 38 86 47 255
0.273706 0.020105 0.051150 0.000000 0.000000 1.000000 0.666667 1.000000 39 86 48 255
0.163836 0.020105 0.051150 -0.000000 0.000000 1.000000 0.333333 1.000000 38 86 48 255
0.265567 -0.375391 0.051150 0.000000 0.000000 1.000000 0.641972 0.000000 1 67 9 255
0.171976 -0.375391 0.051150 0.000000 0.000000 1.000000 0.358028 0.000000 1 67 9 255
0.163836 -0.383531 0.051150 0.000000 0.000000 1.000000 0.333333 0.000000 0 66 8 255
0.273706 -0.383531 0.051150 0.000000 -0.000000 1.000000 0.666667 0.000000 0 66 8 255
3 0 1 2
3 0 2 3
3 4 5 1
3 4 1 0
3 6 7 8
3 6 8 9
3 10 8 7
3 10 7 11
3 3 2 12
3 3 12 13
3 14 15 16
3 14 16 17
3 16 15 18
3 8 10 12
3 8 12 2
3 9 8 2
3 9 2 1
3 11 7 15
3 11 15 14
3 7 6 18
3 7 18 15
3 19 20 21
3 19 21 22
3 20 23 24
3 20 24 25
3 26 27 28
3 26 28 29
3 23 30 31
3 23 31 32
3 30 19 33
3 30 33 34
3 35 36 37
3 35 37 38
3 39 40 41
3 39 41 42
3 43 39 42
3 43 42 44
3 36 45 46
3 36 46 37
3 47 35 38
3 47 38 48
3 49 43 44
3 49 44 50
3 51 52 53
3 51 53 54
3 52 49 50
3 52 50 53
3 45 51 54
3 45 54 46
3 55 56 57
3 55 57 58
3 56 47 48
3 56 48 57
3 40 55 58
3 40 58 41
3 25 24 36
3 25 36 35
3 33 19 40
3 33 40 39
3 34 33 39
3 34 39 43
3 24 23 45
3 24 45 36
3 20 25 35
3 20 35 47
3 30 34 43
3 30 43 49
3 32 31 52
3 32 52 51
3 31 30 49
3 31 49 52
3 23 32 51
3 23 51 45
3 22 21 56
3 22 56 55
3 21 20 47
3 21 47 56
3 19 22 55
3 19 55 40
