ply
format ascii 1.0
comment Created by Blender 2.80 (sub 75) - www.blender.org, source file: 'arrow.blend'
element vertex 158
property float x
property float y
property float z
property float nx
property float ny
property float nz
property float s
property float t
property uchar red
property uchar green
property uchar blue
property uchar alpha
element face 100
property list uchar uint vertex_indices
end_header
-0.290457 -1.508829 -0.004259 0.000000 -0.519566 0.854430 0.386408 0.375107 1 59 0 255
-0.290457 -0.461856 0.632389 0.000000 -0.519566 0.854430 0.453003 0.262766 1 59 0 255
-0.369911 -0.461856 0.632389 0.000000 -0.519566 0.854430 0.453003 0.262766 49 201 0 255
-0.369911 -1.508829 -0.004259 0.000000 -0.519566 0.854430 0.386408 0.375107 49 201 6 255
-0.290457 -0.457681 -0.284934 0.000000 0.999720 -0.023657 0.453068 0.452453 4 59 4 255
-0.290457 -0.466076 -0.639695 0.000000 0.999720 -0.023657 0.453034 0.487310 1 59 0 255
-0.369911 -0.466076 -0.639695 0.000000 0.999720 -0.023657 0.453034 0.487310 49 201 0 255
-0.369911 -0.457681 -0.284934 0.000000 0.999720 -0.023657 0.453068 0.452453 49 201 0 255
-0.290457 1.005059 -0.292096 0.000000 -0.004896 -0.999988 0.614326 0.469548 1 59 0 255
-0.290457 -0.457681 -0.284934 0.000000 -0.004896 -0.999988 0.453068 0.452453 4 59 4 255
-0.369911 -0.457681 -0.284934 0.000000 -0.004896 -0.999988 0.453068 0.452453 49 201 0 255
-0.369911 1.005059 -0.292096 0.000000 -0.004896 -0.999988 0.614326 0.469548 102 222 59 255
0.290457 -0.457681 -0.284934 -0.000013 -0.004896 -0.999988 0.703068 0.547547 1 59 0 255
0.290457 1.005059 -0.292096 -0.000013 -0.004896 -0.999988 0.864326 0.530452 1 59 0 255
0.369911 1.005059 -0.292097 -0.000013 -0.004896 -0.999988 0.864326 0.530452 102 222 59 255
0.290457 -0.457681 -0.284934 0.000000 -0.004897 -0.999988 0.703068 0.547547 1 59 0 255
0.369911 1.005059 -0.292097 0.000000 -0.004897 -0.999988 0.864326 0.530452 102 222 59 255
0.369911 -0.457681 -0.284934 0.000000 -0.004897 -0.999988 0.703068 0.547547 49 201 0 255
0.290457 -0.466076 -0.639695 0.000000 0.999720 -0.023657 0.703034 0.512690 1 59 0 255
0.290457 -0.457681 -0.284934 0.000000 0.999720 -0.023657 0.703068 0.547547 1 59 0 255
0.369911 -0.457681 -0.284934 0.000000 0.999720 -0.023657 0.703068 0.547547 49 201 0 255
0.369911 -0.466076 -0.639695 0.000000 0.999720 -0.023657 0.703034 0.512690 49 201 2 255
-0.290457 -0.458649 0.284559 0.000000 -0.005134 0.999987 0.452947 0.297743 1 59 0 255
-0.290457 1.005059 0.292074 0.000000 -0.005134 0.999987 0.614324 0.280455 1 59 0 255
-0.369911 1.005059 0.292074 0.000000 -0.005134 0.999987 0.614324 0.280455 104 222 63 255
-0.369911 -0.458649 0.284559 0.000000 -0.005134 0.999987 0.452947 0.297743 49 201 0 255
0.290457 -1.508829 -0.004259 -0.000000 -0.520375 -0.853938 0.636408 0.624893 3 59 3 255
0.290457 -0.466076 -0.639695 -0.000000 -0.520375 -0.853938 0.703034 0.512690 1 59 0 255
0.369911 -0.466076 -0.639695 -0.000000 -0.520375 -0.853938 0.703034 0.512690 49 201 2 255
0.369911 -1.508829 -0.004259 0.000000 -0.520375 -0.853938 0.636408 0.624893 68 203 48 255
0.290457 1.005059 0.292074 0.000000 -0.005134 0.999987 0.864324 0.719545 1 59 0 255
0.290457 -0.458649 0.284559 0.000000 -0.005134 0.999987 0.702947 0.702257 1 64 3 255
0.369911 -0.458649 0.284559 0.000000 -0.005134 0.999987 0.702947 0.702257 49 201 1 255
0.369911 1.005059 0.292074 0.000000 -0.005134 0.999987 0.864324 0.719545 102 222 59 255
-0.290457 -0.457681 -0.284934 -1.000000 0.000000 0.000000 0.453068 0.452453 4 59 4 255
-0.290457 1.005059 -0.292096 -1.000000 0.000000 0.000000 0.614326 0.469548 1 59 0 255
-0.290457 1.099076 -0.386576 -1.000000 0.000000 0.000000 0.625000 0.500000 0 89 9 255
-0.290457 -0.365873 -0.379403 -1.000000 0.000000 0.000000 0.458955 0.500000 0 89 9 255
-0.290457 1.005059 -0.000000 -1.000000 -0.000000 -0.000000 0.614292 0.375000 1 59 0 255
-0.290457 1.099077 -0.000000 -1.000000 -0.000000 -0.000000 0.625000 0.375000 0 89 9 255
0.290457 1.005059 0.292074 1.000000 0.000000 -0.000000 0.864324 0.719545 1 59 0 255
0.290457 1.005059 -0.000000 1.000000 0.000000 -0.000000 0.864292 0.625000 1 59 0 255
0.290457 1.099077 -0.000000 1.000000 0.000000 -0.000000 0.875000 0.625000 0 89 9 255
0.290457 1.099077 0.386576 1.000000 0.000000 0.000000 0.875000 0.750000 0 89 9 255
-0.290457 1.005059 0.292074 -1.000000 0.000000 -0.000000 0.614324 0.280455 1 59 0 255
-0.290457 1.099077 0.386576 -1.000000 0.000000 -0.000000 0.625000 0.250000 0 89 9 255
0.290457 1.005059 -0.292096 1.000000 0.000000 -0.000000 0.864326 0.530452 1 59 0 255
0.290457 1.099076 -0.386576 1.000000 0.000000 -0.000000 0.875000 0.500000 0 89 9 255
0.290457 -0.458649 0.284559 1.000000 0.000000 0.000000 0.702947 0.702257 1 64 3 255
0.290457 -0.365498 0.379056 1.000000 -0.000000 0.000000 0.708955 0.750000 0 89 9 255
-0.290457 -0.458649 0.284559 -1.000000 0.000000 -0.000000 0.452947 0.297743 1 59 0 255
-0.290457 -0.365498 0.379056 -1.000000 0.000000 -0.000000 0.458955 0.250000 0 89 9 255
0.290457 -0.457681 -0.284934 1.000000 -0.000000 -0.000000 0.703068 0.547547 1 59 0 255
0.290457 -0.365873 -0.379403 1.000000 -0.000000 -0.000000 0.708955 0.500000 0 89 9 255
-0.290457 -0.461856 0.632389 -1.000000 0.000000 0.000000 0.453003 0.262766 1 59 0 255
-0.290457 -1.508829 -0.004259 -1.000000 0.000000 0.000000 0.386408 0.375107 1 59 0 255
-0.290457 -1.689643 -0.004174 -1.000000 0.000000 0.000000 0.375000 0.375000 1 89 9 255
-0.290457 -0.369367 0.798665 -1.000000 0.000000 -0.000000 0.458955 0.250000 0 89 9 255
0.290457 -0.461855 0.632389 1.000000 0.000000 0.000000 0.703004 0.737234 1 59 0 255
0.290457 -0.369367 0.798665 1.000000 0.000000 0.000000 0.708955 0.750000 9 90 11 255
0.290457 -1.508829 -0.004259 1.000000 0.000000 0.000000 0.636408 0.624893 3 59 3 255
0.290457 -1.689643 -0.004174 1.000000 -0.000000 0.000000 0.625000 0.625000 6 90 9 255
-0.290457 -0.466076 -0.639695 -1.000000 0.000000 0.000000 0.453034 0.487310 1 59 0 255
-0.290457 -0.375937 -0.804723 -1.000000 0.000000 0.000000 0.458955 0.500000 2 89 9 255
0.290457 -0.466076 -0.639695 1.000000 0.000000 0.000000 0.703034 0.512690 1 59 0 255
0.290457 -0.375937 -0.804723 1.000000 -0.000000 -0.000000 0.708955 0.500000 0 89 9 255
-0.369911 -0.358818 -0.000002 -1.000000 -0.000000 0.000000 0.458955 0.375000 49 201 0 255
-0.369911 1.005059 -0.000000 -1.000000 -0.000000 0.000000 0.614292 0.375000 102 222 59 255
-0.369911 1.005059 -0.292096 -1.000000 -0.000000 0.000000 0.614326 0.469548 102 222 59 255
-0.369911 -0.457681 -0.284934 -1.000000 0.000000 0.000000 0.453068 0.452453 49 201 0 255
0.369911 -0.358818 -0.000002 1.000000 0.000000 0.000000 0.708955 0.625000 49 201 0 255
0.369911 1.005059 -0.000000 1.000000 0.000000 0.000000 0.864292 0.625000 102 222 59 255
0.369911 1.005059 0.292074 1.000000 0.000000 0.000000 0.864324 0.719545 102 222 59 255
0.369911 -0.458649 0.284559 1.000000 -0.000000 0.000000 0.702947 0.702257 49 201 1 255
0.369911 -0.457681 -0.284934 1.000000 0.000000 0.000000 0.703068 0.547547 49 201 0 255
0.369911 1.005059 -0.292097 1.000000 0.000000 0.000000 0.864326 0.530452 102 222 59 255
-0.369911 -0.458649 0.284559 -1.000000 -0.000000 0.000000 0.452947 0.297743 49 201 0 255
-0.369911 1.005059 0.292074 -1.000000 -0.000000 0.000000 0.614324 0.280455 104 222 63 255
0.369911 -1.508829 -0.004259 1.000000 0.000000 0.000000 0.636408 0.624893 68 203 48 255
0.369911 -0.466076 -0.639695 1.000000 0.000000 0.000000 0.703034 0.512690 49 201 2 255
-0.369911 -0.466076 -0.639695 -1.000000 0.000000 0.000000 0.453034 0.487310 49 201 0 255
-0.369911 -1.508829 -0.004259 -1.000000 0.000000 0.000000 0.386408 0.375107 49 201 6 255
-0.369911 -0.461856 0.632389 -1.000000 -0.000000 0.000000 0.453003 0.262766 49 201 0 255
0.369911 -0.461856 0.632389 1.000000 -0.000000 0.000000 0.703004 0.737234 49 201 0 255
-0.290457 1.005059 -0.000000 0.000000 1.000000 0.000000 0.614292 0.375000 1 59 0 255
-0.290457 1.005059 -0.292096 0.000000 1.000000 0.000000 0.614326 0.469548 1 59 0 255
-0.369911 1.005059 -0.292096 0.000000 1.000000 0.000000 0.614326 0.469548 102 222 59 255
-0.369911 1.005059 -0.000000 -0.000000 1.000000 0.000000 0.614292 0.375000 102 222 59 255
-0.290457 -0.461856 0.632389 -0.000000 0.999958 0.009220 0.453003 0.262766 1 59 0 255
-0.290457 -0.458649 0.284559 -0.000000 0.999958 0.009220 0.452947 0.297743 1 59 0 255
-0.369911 -0.458649 0.284559 -0.000000 0.999958 0.009220 0.452947 0.297743 49 201 0 255
-0.290457 -0.461856 0.632389 0.000000 0.999958 0.009220 0.453003 0.262766 1 59 0 255
-0.369911 -0.458649 0.284559 0.000000 0.999958 0.009220 0.452947 0.297743 49 201 0 255
-0.369911 -0.461856 0.632389 0.000000 0.999958 0.009220 0.453003 0.262766 49 201 0 255
0.290457 1.005059 -0.000000 0.000000 1.000000 0.000000 0.864292 0.625000 1 59 0 255
0.290457 1.005059 0.292074 0.000000 1.000000 0.000000 0.864324 0.719545 1 59 0 255
0.369911 1.005059 0.292074 0.000000 1.000000 0.000000 0.864324 0.719545 102 222 59 255
0.369911 1.005059 -0.000000 0.000000 1.000000 -0.000000 0.864292 0.625000 102 222 59 255
0.290457 -0.458649 0.284559 0.000013 0.999958 0.009217 0.702947 0.702257 1 64 3 255
0.290457 -0.461855 0.632389 0.000013 0.999958 0.009217 0.703004 0.737234 1 59 0 255
0.369911 -0.461856 0.632389 0.000013 0.999958 0.009217 0.703004 0.737234 49 201 0 255
0.290457 -0.458649 0.284559 0.000000 0.999958 0.009220 0.702947 0.702257 1 64 3 255
0.369911 -0.461856 0.632389 0.000000 0.999958 0.009220 0.703004 0.737234 49 201 0 255
0.369911 -0.458649 0.284559 0.000000 0.999958 0.009220 0.702947 0.702257 49 201 1 255
-0.290457 1.005059 0.292074 0.000000 1.000000 0.000000 0.614324 0.280455 1 59 0 255
-0.369911 1.005059 0.292074 -0.000000 1.000000 0.000000 0.614324 0.280455 104 222 63 255
0.290457 -0.461855 0.632389 0.000000 -0.519565 0.854431 0.703004 0.737234 1 59 0 255
0.290457 -1.508829 -0.004259 0.000000 -0.519565 0.854431 0.636408 0.624893 3 59 3 255
0.369911 -1.508829 -0.004259 0.000000 -0.519565 0.854431 0.636408 0.624893 68 203 48 255
0.290457 -0.461855 0.632389 -0.000007 -0.519566 0.854430 0.703004 0.737234 1 59 0 255
0.369911 -1.508829 -0.004259 -0.000007 -0.519566 0.854430 0.636408 0.624893 68 203 48 255
0.369911 -0.461856 0.632389 -0.000007 -0.519566 0.854430 0.703004 0.737234 49 201 0 255
0.290457 1.005059 -0.292096 0.000000 1.000000 0.000000 0.864326 0.530452 1 59 0 255
0.369911 1.005059 -0.292097 0.000000 1.000000 -0.000000 0.864326 0.530452 102 222 59 255
-0.290457 -0.466076 -0.639695 0.000000 -0.520375 -0.853938 0.453034 0.487310 1 59 0 255
-0.290457 -1.508829 -0.004259 0.000000 -0.520375 -0.853938 0.386408 0.375107 1 59 0 255
-0.369911 -1.508829 -0.004259 0.000000 -0.520375 -0.853938 0.386408 0.375107 49 201 6 255
-0.369911 -0.466076 -0.639695 0.000000 -0.520375 -0.853938 0.453034 0.487310 49 201 0 255
0.290457 1.099077 -0.000000 0.000000 1.000000 -0.000002 0.500000 0.000000 0 89 9 255
0.290457 1.099076 -0.386576 0.000000 1.000000 -0.000002 0.625000 0.000000 0 89 9 255
-0.290457 1.099076 -0.386576 0.000000 1.000000 -0.000002 0.625000 0.250000 0 89 9 255
-0.290457 1.099077 -0.000000 0.000000 1.000000 -0.000002 0.500000 0.250000 0 89 9 255
-0.290457 0.010642 -0.381219 -0.000000 -0.004922 -0.999988 0.500997 0.500000 0 89 9 255
-0.290457 1.099076 -0.386576 -0.000000 -0.004922 -0.999988 0.625000 0.500000 0 89 9 255
0.290457 1.099076 -0.386576 -0.000000 -0.004922 -0.999988 0.625000 0.750000 0 89 9 255
0.290457 0.010642 -0.381219 0.000000 -0.004922 -0.999988 0.500997 0.750000 0 89 9 255
0.290457 0.010642 0.381016 0.000000 -0.005108 0.999987 0.252234 0.500000 0 89 9 255
0.290457 1.099077 0.386576 0.000000 -0.005108 0.999987 0.375000 0.500000 0 89 9 255
-0.290457 1.099077 0.386576 0.000000 -0.005108 0.999987 0.375000 0.750000 0 89 9 255
-0.290457 0.010642 0.381016 0.000000 -0.005108 0.999987 0.252234 0.750000 0 89 9 255
0.290457 -1.689643 -0.004174 0.000000 -0.519566 0.854431 0.500000 0.750000 6 90 9 255
0.290457 -0.369367 0.798665 0.000000 -0.519566 0.854431 0.208955 0.500000 9 90 11 255
-0.290457 -0.369367 0.798665 0.000000 -0.519566 0.854431 0.208955 0.750000 0 89 9 255
-0.290457 -1.689643 -0.004174 0.000000 -0.519566 0.854431 0.500000 1.000000 1 89 9 255
0.290457 1.099077 0.386576 0.000000 1.000000 0.000000 0.375000 0.000000 0 89 9 255
0.290457 1.099077 -0.000000 0.000000 1.000000 0.000000 0.500000 0.000000 0 89 9 255
-0.290457 1.099077 -0.000000 0.000000 1.000000 0.000000 0.500000 0.250000 0 89 9 255
-0.290457 1.099077 0.386576 -0.000000 1.000000 0.000000 0.375000 0.250000 0 89 9 255
-0.290457 -1.689643 -0.004174 -0.000000 -0.520375 -0.853938 0.500000 1.000000 1 89 9 255
-0.290457 -0.375937 -0.804723 -0.000000 -0.520375 -0.853938 0.458955 0.500000 2 89 9 255
0.290457 -0.375937 -0.804723 -0.000000 -0.520375 -0.853938 0.458955 0.750000 0 89 9 255
0.290457 -1.689643 -0.004174 0.000000 -0.520375 -0.853938 0.500000 0.750000 6 90 9 255
0.290457 -0.365498 0.379056 -0.000000 0.999958 0.009220 0.208955 0.500000 0 61 6 255
-0.290457 -0.365498 0.379056 -0.000000 0.999958 0.009220 0.208955 0.750000 0 61 6 255
-0.290457 -0.369367 0.798665 -0.000000 0.999958 0.009220 0.208955 0.750000 0 89 9 255
0.290457 -0.369367 0.798665 0.000000 0.999958 0.009220 0.208955 0.500000 9 90 11 255
-0.290457 -0.365873 -0.379403 0.000000 0.999720 -0.023656 0.458955 0.500000 0 61 6 255
0.290457 -0.365873 -0.379403 0.000000 0.999720 -0.023656 0.458955 0.750000 0 61 6 255
0.290457 -0.375937 -0.804723 0.000000 0.999720 -0.023656 0.458955 0.750000 0 89 9 255
-0.290457 -0.375937 -0.804723 0.000000 0.999720 -0.023656 0.458955 0.500000 2 89 9 255
0.290457 -0.365498 0.379056 0.000000 -0.005211 0.999986 0.208955 0.500000 0 61 6 255
0.290457 0.010642 0.381016 0.000000 -0.005211 0.999986 0.252234 0.500000 0 89 9 255
-0.290457 0.010642 0.381016 0.000000 -0.005211 0.999986 0.252234 0.750000 0 89 9 255
-0.290457 -0.365498 0.379056 0.000000 -0.005211 0.999986 0.208955 0.750000 0 61 6 255
-0.290457 -0.365873 -0.379403 -0.000000 -0.004823 -0.999988 0.458955 0.500000 0 61 6 255
-0.290457 0.010642 -0.381219 -0.000000 -0.004823 -0.999988 0.500997 0.500000 0 89 9 255
0.290457 0.010642 -0.381219 -0.000000 -0.004823 -0.999988 0.500997 0.750000 0 89 9 255
0.290457 -0.365873 -0.379403 0.000000 -0.004823 -0.999988 0.458955 0.750000 0 61 6 255
3 0 1 2
3 0 2 3
3 4 5 6
3 4 6 7
3 8 9 10
3 8 10 11
3 12 13 14
3 15 16 17
3 18 19 20
3 18 20 21
3 22 23 24
3 22 24 25
3 26 27 28
3 26 28 29
3 30 31 32
3 30 32 33
3 34 35 36
3 34 36 37
3 35 38 39
3 35 39 36
3 40 41 42
3 40 42 43
3 38 44 45
3 38 45 39
3 41 46 47
3 41 47 42
3 48 40 43
3 48 43 49
3 44 50 51
3 44 51 45
3 46 52 53
3 46 53 47
3 54 55 56
3 54 56 57
3 50 54 57
3 50 57 51
3 58 48 49
3 58 49 59
3 60 58 59
3 60 59 61
3 55 62 63
3 55 63 56
3 64 60 61
3 64 61 65
3 52 64 65
3 52 65 53
3 62 34 37
3 62 37 63
3 66 67 68
3 66 68 69
3 70 71 72
3 70 72 73
3 74 75 71
3 74 71 70
3 76 77 67
3 76 67 66
3 78 79 74
3 78 74 70
3 69 80 81
3 69 81 66
3 81 82 76
3 81 76 66
3 73 83 78
3 73 78 70
3 84 85 86
3 84 86 87
3 88 89 90
3 91 92 93
3 94 95 96
3 94 96 97
3 98 99 100
3 101 102 103
3 104 84 87
3 104 87 105
3 106 107 108
3 109 110 111
3 112 94 97
3 112 97 113
3 114 115 116
3 114 116 117
3 118 119 120
3 118 120 121
3 122 123 124
3 122 124 125
3 126 127 128
3 126 128 129
3 130 131 132
3 130 132 133
3 134 135 136
3 134 136 137
3 138 139 140
3 138 140 141
3 142 143 144
3 142 144 145
3 146 147 148
3 146 148 149
3 150 151 152
3 150 152 153
3 154 155 156
3 154 156 157
