ply
format ascii 1.0
comment Created by Blender 2.82 (sub 7) - www.blender.org, source file: ''
element vertex 506
property float x
property float y
property float z
property float nx
property float ny
property float nz
property float s
property float t
property uchar red
property uchar green
property uchar blue
property uchar alpha
element face 322
property list uchar uint vertex_indices
end_header
0.290457 -1.508829 0.004259 -0.000000 -0.519566 -0.854430 0.386408 0.375107 1 59 0 255
0.290457 -0.461856 -0.632389 -0.000000 -0.519566 -0.854430 0.453003 0.262766 1 59 0 255
0.369911 -0.461856 -0.632389 -0.000000 -0.519566 -0.854430 0.453003 0.262766 49 201 0 255
0.369911 -1.508829 0.004259 0.000000 -0.519566 -0.854430 0.386408 0.375107 49 201 6 255
0.290457 -0.457681 0.284934 0.000000 0.999720 0.023657 0.453068 0.452453 4 59 4 255
0.290457 -0.466076 0.639695 0.000000 0.999720 0.023657 0.453034 0.487310 1 59 0 255
0.369911 -0.466076 0.639695 0.000000 0.999720 0.023657 0.453034 0.487310 49 201 0 255
0.369911 -0.457681 0.284934 0.000000 0.999720 0.023657 0.453068 0.452453 49 201 0 255
0.290457 1.005059 0.292096 0.000000 -0.004896 0.999988 0.614326 0.469548 1 59 0 255
0.290457 -0.457681 0.284934 0.000000 -0.004896 0.999988 0.453068 0.452453 4 59 4 255
0.369911 -0.457681 0.284934 0.000000 -0.004896 0.999988 0.453068 0.452453 49 201 0 255
0.369911 -0.266594 0.285870 0.000000 -0.004896 0.999988 0.474134 0.454686 56 204 8 255
0.369911 0.018967 0.287268 0.000000 -0.004896 0.999988 0.505615 0.458024 66 208 19 255
-0.290457 -0.457681 0.284934 0.000013 -0.004896 0.999988 0.703068 0.547547 1 59 0 255
-0.290457 1.005059 0.292096 0.000013 -0.004896 0.999988 0.864326 0.530452 1 59 0 255
-0.369911 1.005059 0.292097 0.000013 -0.004896 0.999988 0.864326 0.530452 102 222 59 255
-0.290457 -0.457681 0.284934 0.000000 -0.004897 0.999988 0.703068 0.547547 1 59 0 255
-0.369911 1.005059 0.292097 0.000000 -0.004897 0.999988 0.864326 0.530452 102 222 59 255
-0.369911 -0.457681 0.284934 0.000000 -0.004897 0.999988 0.703068 0.547547 49 201 0 255
-0.290457 -0.466076 0.639695 -0.000000 0.999720 0.023657 0.703034 0.512690 1 59 0 255
-0.290457 -0.457681 0.284934 -0.000000 0.999720 0.023657 0.703068 0.547547 1 59 0 255
-0.369911 -0.457681 0.284934 -0.000000 0.999720 0.023657 0.703068 0.547547 49 201 0 255
-0.369911 -0.466076 0.639695 0.000000 0.999720 0.023657 0.703034 0.512690 49 201 2 255
0.290457 -0.458649 -0.284559 -0.000000 -0.005134 -0.999987 0.452947 0.297743 1 59 0 255
0.290457 1.005059 -0.292074 -0.000000 -0.005134 -0.999987 0.614324 0.280455 1 59 0 255
0.369911 1.005059 -0.292074 -0.000000 -0.005134 -0.999987 0.614324 0.280455 104 222 63 255
0.290457 -0.458649 -0.284559 -0.000001 -0.005134 -0.999987 0.452947 0.297743 1 59 0 255
0.369911 0.307279 -0.288491 -0.000001 -0.005134 -0.999987 0.537392 0.288697 78 212 33 255
0.369911 0.018967 -0.287011 -0.000001 -0.005134 -0.999987 0.505605 0.292102 67 208 21 255
-0.290457 -1.508829 0.004259 0.000000 -0.520375 0.853938 0.636408 0.624893 3 59 3 255
-0.290457 -0.466076 0.639695 0.000000 -0.520375 0.853938 0.703034 0.512690 1 59 0 255
-0.369911 -0.466076 0.639695 0.000000 -0.520375 0.853938 0.703034 0.512690 49 201 2 255
-0.369911 -1.508829 0.004259 0.000000 -0.520375 0.853938 0.636408 0.624893 68 203 48 255
-0.290457 1.005059 -0.292074 0.000000 -0.005134 -0.999987 0.864324 0.719545 1 59 0 255
-0.290457 -0.458649 -0.284559 0.000000 -0.005134 -0.999987 0.702947 0.702257 1 64 3 255
-0.369911 -0.458649 -0.284559 0.000000 -0.005134 -0.999987 0.702947 0.702257 49 201 1 255
-0.369911 1.005059 -0.292074 0.000000 -0.005134 -0.999987 0.864324 0.719545 102 222 59 255
0.290457 -0.457681 0.284934 1.000000 0.000000 0.000000 0.453068 0.452453 4 59 4 255
0.290457 1.005059 0.292096 1.000000 0.000000 0.000000 0.614326 0.469548 1 59 0 255
0.290457 1.099076 0.386576 1.000000 0.000000 0.000000 0.625000 0.500000 0 89 9 255
0.290457 -0.365873 0.379403 1.000000 -0.000000 0.000000 0.458955 0.500000 0 89 9 255
0.290457 1.005059 -0.000000 1.000000 0.000000 -0.000000 0.614292 0.375000 1 59 0 255
0.290457 1.099077 -0.000000 1.000000 0.000000 -0.000000 0.625000 0.375000 0 89 9 255
-0.290457 1.005059 -0.292074 -1.000000 -0.000000 -0.000000 0.864324 0.719545 1 59 0 255
-0.290457 1.005059 -0.000000 -1.000000 -0.000000 -0.000000 0.864292 0.625000 1 59 0 255
-0.290457 1.099077 -0.000000 -1.000000 -0.000000 -0.000000 0.875000 0.625000 0 89 9 255
-0.290457 1.099077 -0.386576 -1.000000 -0.000000 0.000000 0.875000 0.750000 0 89 9 255
0.290457 1.005059 -0.292074 1.000000 0.000000 -0.000000 0.614324 0.280455 1 59 0 255
0.290457 1.099077 -0.386576 1.000000 0.000000 -0.000000 0.625000 0.250000 0 89 9 255
-0.290457 1.005059 0.292096 -1.000000 0.000000 -0.000000 0.864326 0.530452 1 59 0 255
-0.290457 1.099076 0.386576 -1.000000 0.000000 -0.000000 0.875000 0.500000 0 89 9 255
-0.290457 -0.458649 -0.284559 -1.000000 0.000000 0.000000 0.702947 0.702257 1 64 3 255
-0.290457 -0.365498 -0.379056 -1.000000 0.000000 0.000000 0.708955 0.750000 0 89 9 255
0.290457 -0.458649 -0.284559 1.000000 -0.000000 -0.000000 0.452947 0.297743 1 59 0 255
0.290457 -0.365498 -0.379056 1.000000 -0.000000 -0.000000 0.458955 0.250000 0 89 9 255
-0.290457 -0.457681 0.284934 -1.000000 0.000000 -0.000000 0.703068 0.547547 1 59 0 255
-0.290457 -0.365873 0.379403 -1.000000 0.000000 -0.000000 0.708955 0.500000 0 89 9 255
0.290457 -0.461856 -0.632389 1.000000 -0.000000 0.000000 0.453003 0.262766 1 59 0 255
0.290457 -1.508829 0.004259 1.000000 -0.000000 0.000000 0.386408 0.375107 1 59 0 255
0.290457 -1.689643 0.004174 1.000000 -0.000000 0.000000 0.375000 0.375000 1 89 9 255
0.290457 -0.369367 -0.798665 1.000000 -0.000000 -0.000000 0.458955 0.250000 0 89 9 255
-0.290457 -0.461855 -0.632389 -1.000000 -0.000000 0.000000 0.703004 0.737234 1 59 0 255
-0.290457 -0.369367 -0.798665 -1.000000 -0.000000 0.000000 0.708955 0.750000 9 90 11 255
-0.290457 -1.508829 0.004259 -1.000000 0.000000 0.000000 0.636408 0.624893 3 59 3 255
-0.290457 -1.689643 0.004174 -1.000000 0.000000 0.000000 0.625000 0.625000 6 90 9 255
0.290457 -0.466076 0.639695 1.000000 0.000000 0.000000 0.453034 0.487310 1 59 0 255
0.290457 -0.375937 0.804723 1.000000 0.000000 0.000000 0.458955 0.500000 2 89 9 255
-0.290457 -0.466076 0.639695 -1.000000 0.000000 0.000000 0.703034 0.512690 1 59 0 255
-0.290457 -0.375937 0.804723 -1.000000 0.000000 -0.000000 0.708955 0.500000 0 89 9 255
0.369911 -0.358818 0.000002 1.000000 0.000000 0.000000 0.458955 0.375000 49 201 0 255
0.369911 -0.266594 0.000002 1.000000 0.000000 0.000000 0.469459 0.375000 53 202 4 255
0.369911 -0.266594 0.019753 1.000000 0.000000 0.000000 0.469461 0.381393 53 202 4 255
0.369911 -0.266594 0.285870 1.000000 -0.000000 0.000000 0.474134 0.454686 56 204 8 255
0.369911 -0.457681 0.284934 1.000000 -0.000000 0.000000 0.453068 0.452453 49 201 0 255
-0.369911 -0.358818 0.000002 -1.000000 0.000000 0.000000 0.708955 0.625000 49 201 0 255
-0.369911 -0.269506 0.000002 -1.000000 0.000000 0.000000 0.719127 0.625000 52 202 4 255
-0.369911 -0.269506 -0.019124 -1.000000 0.000000 0.000000 0.719129 0.631191 52 202 4 255
-0.369911 -0.269506 -0.285530 -1.000000 0.000000 0.000000 0.723800 0.704491 56 204 9 255
-0.369911 -0.458649 -0.284559 -1.000000 0.000000 0.000000 0.702947 0.702257 49 201 1 255
-0.369911 -0.457681 0.284934 -1.000000 -0.000000 0.000000 0.703068 0.547547 49 201 0 255
-0.369911 -0.269506 0.285856 -1.000000 -0.000000 0.000000 0.723813 0.545348 56 204 8 255
-0.369911 -0.269506 0.248278 -1.000000 -0.000000 0.000000 0.723809 0.557511 56 204 8 255
0.369911 -0.458649 -0.284559 1.000000 0.000000 0.000000 0.452947 0.297743 49 201 0 255
0.369911 -0.266594 -0.285545 1.000000 0.000000 0.000000 0.474121 0.295475 56 204 8 255
0.369911 -0.266594 -0.247222 1.000000 0.000000 0.000000 0.474117 0.307880 56 204 8 255
-0.369911 -1.508829 0.004259 -1.000000 -0.000000 0.000000 0.636408 0.624893 68 203 48 255
-0.369911 -0.466076 0.639695 -1.000000 -0.000000 0.000000 0.703034 0.512690 49 201 2 255
0.369911 -0.466076 0.639695 1.000000 -0.000000 0.000000 0.453034 0.487310 49 201 0 255
0.369911 -1.508829 0.004259 1.000000 -0.000000 0.000000 0.386408 0.375107 49 201 6 255
0.369911 -0.461856 -0.632389 1.000000 0.000000 0.000000 0.453003 0.262766 49 201 0 255
-0.369911 -0.461856 -0.632389 -1.000000 0.000000 0.000000 0.703004 0.737234 49 201 0 255
0.290457 1.005059 -0.000000 0.000000 1.000000 0.000000 0.614292 0.375000 1 59 0 255
0.290457 1.005059 0.292096 0.000000 1.000000 0.000000 0.614326 0.469548 1 59 0 255
0.369911 1.005059 0.292096 0.000000 1.000000 0.000000 0.614326 0.469548 102 222 59 255
0.369911 1.005059 -0.000000 0.000000 1.000000 -0.000000 0.614292 0.375000 102 222 59 255
0.290457 -0.461856 -0.632389 0.000000 0.999958 -0.009220 0.453003 0.262766 1 59 0 255
0.290457 -0.458649 -0.284559 0.000000 0.999958 -0.009220 0.452947 0.297743 1 59 0 255
0.369911 -0.458649 -0.284559 0.000000 0.999958 -0.009220 0.452947 0.297743 49 201 0 255
0.369911 -0.461856 -0.632389 0.000000 0.999958 -0.009220 0.453003 0.262766 49 201 0 255
-0.290457 1.005059 -0.000000 0.000000 1.000000 0.000000 0.864292 0.625000 1 59 0 255
-0.290457 1.005059 -0.292074 0.000000 1.000000 0.000000 0.864324 0.719545 1 59 0 255
-0.369911 1.005059 -0.292074 0.000000 1.000000 0.000000 0.864324 0.719545 102 222 59 255
-0.369911 1.005059 -0.000000 -0.000000 1.000000 0.000000 0.864292 0.625000 102 222 59 255
-0.290457 -0.458649 -0.284559 -0.000013 0.999958 -0.009217 0.702947 0.702257 1 64 3 255
-0.290457 -0.461855 -0.632389 -0.000013 0.999958 -0.009217 0.703004 0.737234 1 59 0 255
-0.369911 -0.461856 -0.632389 -0.000013 0.999958 -0.009217 0.703004 0.737234 49 201 0 255
-0.290457 -0.458649 -0.284559 0.000000 0.999958 -0.009220 0.702947 0.702257 1 64 3 255
-0.369911 -0.461856 -0.632389 0.000000 0.999958 -0.009220 0.703004 0.737234 49 201 0 255
-0.369911 -0.458649 -0.284559 0.000000 0.999958 -0.009220 0.702947 0.702257 49 201 1 255
0.290457 1.005059 -0.292074 0.000000 1.000000 0.000000 0.614324 0.280455 1 59 0 255
0.369911 1.005059 -0.292074 0.000000 1.000000 -0.000000 0.614324 0.280455 104 222 63 255
-0.290457 -0.461855 -0.632389 0.000000 -0.519566 -0.854431 0.703004 0.737234 1 59 0 255
-0.290457 -1.508829 0.004259 0.000000 -0.519566 -0.854431 0.636408 0.624893 3 59 3 255
-0.369911 -1.508829 0.004259 0.000000 -0.519566 -0.854431 0.636408 0.624893 68 203 48 255
-0.290457 -0.461855 -0.632389 0.000006 -0.519566 -0.854430 0.703004 0.737234 1 59 0 255
-0.369911 -1.508829 0.004259 0.000006 -0.519566 -0.854430 0.636408 0.624893 68 203 48 255
-0.369911 -0.461856 -0.632389 0.000006 -0.519566 -0.854430 0.703004 0.737234 49 201 0 255
-0.290457 1.005059 0.292096 0.000000 1.000000 0.000000 0.864326 0.530452 1 59 0 255
-0.369911 1.005059 0.292097 -0.000000 1.000000 0.000000 0.864326 0.530452 102 222 59 255
0.290457 -0.466076 0.639695 0.000000 -0.520375 0.853938 0.453034 0.487310 1 59 0 255
0.290457 -1.508829 0.004259 0.000000 -0.520375 0.853938 0.386408 0.375107 1 59 0 255
0.369911 -1.508829 0.004259 0.000000 -0.520375 0.853938 0.386408 0.375107 49 201 6 255
0.369911 -0.466076 0.639695 0.000000 -0.520375 0.853938 0.453034 0.487310 49 201 0 255
-0.290457 1.099077 -0.000000 0.000000 1.000000 0.000002 0.500000 0.000000 0 89 9 255
-0.290457 1.099076 0.386576 0.000000 1.000000 0.000002 0.625000 0.000000 0 89 9 255
0.290457 1.099076 0.386576 0.000000 1.000000 0.000002 0.625000 0.250000 0 89 9 255
0.290457 1.099077 -0.000000 0.000000 1.000000 0.000002 0.500000 0.250000 0 89 9 255
0.290457 0.010642 0.381219 0.000000 -0.004922 0.999988 0.500997 0.500000 0 89 9 255
0.290457 1.099076 0.386576 0.000000 -0.004922 0.999988 0.625000 0.500000 0 89 9 255
-0.290457 1.099076 0.386576 0.000000 -0.004922 0.999988 0.625000 0.750000 0 89 9 255
-0.290457 0.010642 0.381219 0.000000 -0.004922 0.999988 0.500997 0.750000 0 89 9 255
-0.290457 0.010642 -0.381016 -0.000000 -0.005108 -0.999987 0.252234 0.500000 0 89 9 255
-0.290457 1.099077 -0.386576 -0.000000 -0.005108 -0.999987 0.375000 0.500000 0 89 9 255
0.290457 1.099077 -0.386576 -0.000000 -0.005108 -0.999987 0.375000 0.750000 0 89 9 255
0.290457 0.010642 -0.381016 0.000000 -0.005108 -0.999987 0.252234 0.750000 0 89 9 255
-0.290457 -1.689643 0.004174 -0.000000 -0.519566 -0.854430 0.500000 0.750000 6 90 9 255
-0.290457 -0.369367 -0.798665 -0.000000 -0.519566 -0.854430 0.208955 0.500000 9 90 11 255
0.290457 -0.369367 -0.798665 -0.000000 -0.519566 -0.854430 0.208955 0.750000 0 89 9 255
0.290457 -1.689643 0.004174 0.000000 -0.519566 -0.854430 0.500000 1.000000 1 89 9 255
-0.290457 1.099077 -0.386576 0.000000 1.000000 0.000000 0.375000 0.000000 0 89 9 255
-0.290457 1.099077 -0.000000 0.000000 1.000000 0.000000 0.500000 0.000000 0 89 9 255
0.290457 1.099077 -0.000000 0.000000 1.000000 0.000000 0.500000 0.250000 0 89 9 255
0.290457 1.099077 -0.386576 0.000000 1.000000 -0.000000 0.375000 0.250000 0 89 9 255
0.290457 -1.689643 0.004174 0.000000 -0.520375 0.853938 0.500000 1.000000 1 89 9 255
0.290457 -0.375937 0.804723 0.000000 -0.520375 0.853938 0.458955 0.500000 2 89 9 255
-0.290457 -0.375937 0.804723 0.000000 -0.520375 0.853938 0.458955 0.750000 0 89 9 255
-0.290457 -1.689643 0.004174 0.000000 -0.520375 0.853938 0.500000 0.750000 6 90 9 255
-0.290457 -0.365498 -0.379056 0.000000 0.999958 -0.009220 0.208955 0.500000 0 61 6 255
0.290457 -0.365498 -0.379056 0.000000 0.999958 -0.009220 0.208955 0.750000 0 61 6 255
0.290457 -0.369367 -0.798665 0.000000 0.999958 -0.009220 0.208955 0.750000 0 89 9 255
-0.290457 -0.369367 -0.798665 0.000000 0.999958 -0.009220 0.208955 0.500000 9 90 11 255
0.290457 -0.365873 0.379403 -0.000000 0.999720 0.023656 0.458955 0.500000 0 61 6 255
-0.290457 -0.365873 0.379403 -0.000000 0.999720 0.023656 0.458955 0.750000 0 61 6 255
-0.290457 -0.375937 0.804723 -0.000000 0.999720 0.023656 0.458955 0.750000 0 89 9 255
0.290457 -0.375937 0.804723 0.000000 0.999720 0.023656 0.458955 0.500000 2 89 9 255
-0.290457 -0.365498 -0.379056 -0.000000 -0.005211 -0.999986 0.208955 0.500000 0 61 6 255
-0.290457 0.010642 -0.381016 -0.000000 -0.005211 -0.999986 0.252234 0.500000 0 89 9 255
0.290457 0.010642 -0.381016 -0.000000 -0.005211 -0.999986 0.252234 0.750000 0 89 9 255
0.290457 -0.365498 -0.379056 0.000000 -0.005211 -0.999986 0.208955 0.750000 0 61 6 255
0.290457 -0.365873 0.379403 0.000000 -0.004823 0.999988 0.458955 0.500000 0 61 6 255
0.290457 0.010642 0.381219 0.000000 -0.004823 0.999988 0.500997 0.500000 0 89 9 255
-0.290457 0.010642 0.381219 0.000000 -0.004823 0.999988 0.500997 0.750000 0 89 9 255
-0.290457 -0.365873 0.379403 0.000000 -0.004823 0.999988 0.458955 0.750000 0 61 6 255
-0.369911 0.312146 0.000001 -1.000000 -0.000000 0.000000 0.785374 0.625000 75 211 29 255
-0.369911 0.312146 0.134976 -1.000000 -0.000000 0.000000 0.787919 0.588310 77 212 31 255
-0.369911 1.005059 -0.000000 -1.000000 -0.000000 0.000000 0.864292 0.625000 102 222 59 255
-0.369911 0.312146 -0.143686 -1.000000 -0.000000 0.000000 0.785389 0.671512 75 211 29 255
-0.369911 1.005059 -0.292074 -1.000000 -0.000000 0.000000 0.864324 0.719545 102 222 59 255
-0.369911 0.312146 -0.288516 -1.000000 -0.000000 -0.000000 0.787929 0.711361 77 212 32 255
-0.369911 1.005059 0.292097 -1.000000 -0.000000 0.000000 0.864326 0.530452 102 222 59 255
-0.369911 0.037808 0.188415 -1.000000 -0.000000 0.000000 0.757681 0.573783 45 139 13 255
-0.369911 0.037808 0.000001 -1.000000 -0.000000 0.000000 0.754128 0.625000 43 139 11 255
-0.369911 0.037808 -0.084936 -1.000000 -0.000000 0.000000 0.754138 0.652494 43 139 11 255
-0.369911 0.037808 -0.287108 -1.000000 -0.000000 0.000000 0.757682 0.708121 45 139 14 255
-0.369911 0.037808 0.287360 -1.000000 -0.000000 0.000000 0.757693 0.541756 45 139 13 255
-0.369911 0.312146 0.288704 -1.000000 -0.000000 0.000000 0.787937 0.538550 77 212 31 255
0.369911 0.018967 0.080910 1.000000 0.000000 0.000000 0.501992 0.401189 43 139 11 255
0.369911 0.307279 0.000001 1.000000 0.000000 0.000000 0.534819 0.375000 76 212 28 255
0.369911 0.307279 0.142656 1.000000 0.000000 0.000000 0.534836 0.421176 76 212 28 255
0.369911 0.018967 0.000001 1.000000 0.000000 0.000000 0.501982 0.375000 43 139 11 255
0.369911 0.307279 -0.135655 1.000000 0.000000 0.000000 0.537376 0.338170 77 212 31 255
0.369911 0.018967 0.287268 1.000000 0.000000 0.000000 0.505615 0.458024 44 139 13 255
0.369911 0.307279 0.288679 1.000000 0.000000 0.000000 0.537400 0.461393 77 212 31 255
0.369911 0.018967 -0.191706 1.000000 0.000000 0.000000 0.505595 0.322952 44 139 13 255
0.369911 0.307279 -0.288491 1.000000 0.000000 0.000000 0.537392 0.288697 78 212 33 255
0.369911 1.005059 -0.292074 1.000000 0.000000 0.000000 0.614324 0.280455 104 222 63 255
0.369911 1.005059 -0.000000 1.000000 0.000000 0.000000 0.614292 0.375000 102 222 59 255
0.369911 1.005059 0.292096 1.000000 0.000000 0.000000 0.614326 0.469548 102 222 59 255
0.369911 0.018967 -0.287011 1.000000 0.000000 0.000000 0.505605 0.292102 45 139 14 255
0.290457 1.005059 0.292096 0.000002 -0.004896 0.999988 0.614326 0.469548 1 59 0 255
0.369911 -0.457681 0.284934 0.000002 -0.004896 0.999988 0.453068 0.452453 49 201 0 255
0.369911 -0.266594 0.285870 0.000002 -0.004896 0.999988 0.474134 0.454686 56 204 8 255
0.369911 0.307279 0.288679 0.000000 -0.004896 0.999988 0.537400 0.461393 77 212 31 255
0.369911 1.005059 0.292096 0.000000 -0.004896 0.999988 0.614326 0.469548 102 222 59 255
0.369911 0.307279 -0.288491 -0.000000 -0.005134 -0.999987 0.537392 0.288697 78 212 33 255
0.369911 -0.266594 -0.285545 -0.000001 -0.005134 -0.999987 0.474121 0.295475 56 204 8 255
0.369911 -0.266594 -0.285545 0.000000 -0.005134 -0.999987 0.474121 0.295475 56 204 8 255
0.369911 -0.458649 -0.284559 0.000000 -0.005134 -0.999987 0.452947 0.297743 49 201 0 255
-0.409504 0.073344 -0.240018 -1.000000 -0.000000 0.000000 1.000000 0.307747 215 208 86 255
-0.409503 -0.220835 -0.240018 -1.000000 -0.000000 0.000000 1.000000 1.000000 207 182 0 255
-0.409503 -0.195612 -0.226125 -1.000000 -0.000000 0.000000 0.970913 0.944141 207 183 5 255
-0.409503 -0.122351 0.139121 -1.000000 0.000000 0.000000 0.793804 0.206196 176 164 0 255
-0.409503 -0.037392 0.139120 -1.000000 0.000000 0.000000 0.793804 0.307747 196 183 0 255
-0.409503 -0.037392 0.055146 -1.000000 0.000000 0.000000 0.793804 0.206196 197 184 1 255
-0.409503 0.158303 0.139121 -1.000000 0.000000 -0.000000 0.793804 0.793804 253 243 86 255
-0.409503 0.158303 0.231155 -1.000000 0.000000 -0.000000 0.986497 0.769924 241 233 86 255
-0.409503 0.256787 0.237604 -1.000000 0.000000 -0.000000 1.000000 1.000000 252 247 141 255
-0.409503 0.073344 -0.141534 -1.000000 -0.000000 0.000000 0.793804 0.307747 215 208 86 255
-0.409503 0.099284 -0.083199 -1.000000 -0.000000 0.000000 0.793804 0.206196 249 241 101 255
-0.409504 0.158303 -0.141534 -1.000000 -0.000000 0.000000 0.793804 0.206196 253 247 136 255
-0.409503 -0.154148 0.210694 -1.000000 0.000000 0.000000 0.943657 0.121629 168 151 3 255
-0.409503 -0.142697 0.159467 -1.000000 0.000000 0.000000 0.836402 0.163598 155 143 1 255
-0.409503 -0.220835 0.237604 -1.000000 0.000000 0.000000 1.000000 0.000000 128 112 3 255
-0.409503 -0.184282 0.105830 -1.000000 0.000000 0.000000 0.724105 0.076530 176 155 5 255
-0.409503 -0.220835 -0.240018 -1.000000 0.000000 0.000000 0.000000 0.000000 128 112 0 255
-0.409503 -0.220835 0.141935 -1.000000 0.000000 0.000000 0.799697 0.000000 128 112 5 255
-0.409504 0.158303 -0.200827 -1.000000 -0.000000 0.000000 0.917946 0.177627 243 239 141 255
-0.409503 0.175636 0.110890 -1.000000 0.000000 -0.000000 0.265301 0.169907 253 243 97 255
-0.409503 0.158303 0.139121 -1.000000 0.000000 -0.000000 0.206196 0.206196 253 243 86 255
-0.409503 0.256787 0.237604 -1.000000 0.000000 -0.000000 0.000000 0.000000 252 247 141 255
-0.409503 0.158303 0.231155 -1.000000 -0.000000 -0.000000 0.986497 0.769924 205 198 73 255
-0.409503 -0.037392 0.237604 -1.000000 -0.000000 -0.000000 1.000000 0.307747 167 156 0 255
-0.409503 0.158303 0.237604 -1.000000 -0.000000 -0.000000 1.000000 0.768251 204 197 73 255
-0.409504 0.256787 -0.240018 -1.000000 0.000000 -0.000000 1.000000 0.000000 252 247 141 255
-0.409503 -0.037392 0.218339 -1.000000 0.000000 0.000000 0.959665 0.307747 196 183 0 255
-0.409503 -0.184282 0.105830 -1.000000 0.000000 0.000000 0.724105 0.076530 207 182 6 255
-0.409503 -0.122351 -0.141534 -1.000000 0.000000 0.000000 0.206196 0.206196 207 182 12 255
-0.409503 -0.195211 -0.214394 -1.000000 0.000000 0.000000 0.053648 0.053648 207 182 3 255
-0.409503 -0.195211 -0.214394 -1.000000 0.000000 0.000000 0.946352 0.946352 176 155 3 255
-0.409503 -0.195612 -0.226125 -1.000000 0.000000 0.000000 0.970913 0.944141 175 155 4 255
-0.409503 -0.220835 -0.240018 -1.000000 0.000000 0.000000 1.000000 1.000000 128 112 0 255
-0.409503 0.099284 -0.083199 -1.000000 0.000000 0.000000 0.793804 0.206196 212 205 86 255
-0.409503 0.073344 -0.141534 -1.000000 0.000000 0.000000 0.793804 0.307747 156 151 62 255
-0.409503 0.073344 -0.057559 -1.000000 0.000000 0.000000 0.793804 0.206196 154 149 53 255
-0.409503 0.175636 0.110890 -1.000000 0.000000 0.000000 0.265301 0.169907 215 207 83 255
-0.409504 0.158303 -0.047874 -1.000000 0.000000 0.000000 0.597707 0.206196 156 150 53 255
-0.409503 0.158303 0.139121 -1.000000 0.000000 0.000000 0.206196 0.206196 156 150 53 255
-0.409503 -0.195211 -0.214394 -1.000000 -0.000000 0.000000 0.946352 0.946352 207 182 3 255
-0.409503 -0.122351 -0.141534 -1.000000 -0.000000 0.000000 0.793804 0.793804 207 182 12 255
-0.409503 0.073344 -0.141534 -1.000000 -0.000004 0.000002 0.793804 0.307747 215 208 86 255
-0.409503 0.099284 -0.083199 -1.000000 -0.000004 0.000002 0.793804 0.206196 249 241 101 255
-0.409504 0.084110 -0.133514 -1.000000 -0.000004 0.000002 0.793804 0.285180 223 216 92 255
-0.409503 -0.037392 0.218339 -1.000000 0.000000 0.000000 0.959665 0.307747 167 156 0 255
-0.409503 -0.195211 -0.214394 -1.000000 0.000000 0.000000 0.053648 0.053648 176 155 3 255
-0.409504 0.256787 -0.145150 -1.000000 -0.000000 0.000000 0.801375 0.000000 248 243 157 255
-0.409504 0.181515 -0.070800 -1.000000 0.000000 0.000000 0.645708 0.157599 252 243 103 255
-0.409503 -0.142697 0.159467 -1.000000 0.000000 -0.000000 0.836402 0.163598 182 168 1 255
-0.409503 -0.154148 0.210694 -1.000000 0.000000 -0.000000 0.943657 0.121629 197 178 3 255
-0.409503 -0.122351 0.044659 -1.000000 0.000000 0.000000 0.596029 0.206196 207 182 3 255
-0.409504 0.181515 -0.070800 -1.000000 0.000000 0.000000 0.645708 0.157599 214 207 88 255
0.409504 0.073344 0.240018 1.000000 -0.000000 -0.000001 1.000000 0.307747 215 208 86 255
0.409503 -0.220835 0.240018 1.000000 -0.000000 -0.000001 1.000000 1.000000 207 182 0 255
0.409503 -0.195612 0.226125 1.000000 -0.000000 -0.000001 0.970913 0.944141 207 183 5 255
0.409503 -0.122351 -0.139120 1.000000 0.000000 0.000000 0.793804 0.206196 176 164 0 255
0.409503 -0.037392 -0.139120 1.000000 0.000000 0.000000 0.793804 0.307747 196 183 0 255
0.409503 -0.037392 -0.055146 1.000000 0.000000 0.000000 0.793804 0.206196 197 184 1 255
0.409503 0.158303 -0.139120 1.000000 0.000000 0.000001 0.793804 0.793804 253 243 86 255
0.409504 0.158303 -0.231155 1.000000 0.000000 0.000001 0.986497 0.769924 241 233 86 255
0.409504 0.256787 -0.237604 1.000000 0.000000 0.000001 1.000000 1.000000 252 247 141 255
0.409503 0.073344 0.141534 1.000000 -0.000000 -0.000000 0.793804 0.307747 215 208 86 255
0.409503 0.099284 0.083199 1.000000 -0.000000 -0.000000 0.793804 0.206196 249 241 101 255
0.409504 0.158303 0.141534 1.000000 -0.000000 -0.000000 0.793804 0.206196 253 247 136 255
0.409504 -0.154148 -0.210694 1.000000 -0.000001 0.000001 0.943657 0.121629 168 151 3 255
0.409503 -0.142697 -0.159466 1.000000 -0.000001 0.000001 0.836402 0.163598 155 143 1 255
0.409504 -0.220835 -0.237604 1.000000 -0.000001 0.000001 1.000000 0.000000 128 112 3 255
0.409503 -0.184282 -0.105830 1.000000 -0.000000 0.000000 0.724105 0.076530 176 155 5 255
0.409503 -0.220835 0.240018 1.000000 -0.000000 0.000000 0.000000 0.000000 128 112 0 255
0.409503 -0.220835 -0.141935 1.000000 -0.000000 0.000000 0.799697 0.000000 128 112 5 255
0.409504 0.158303 0.200827 1.000000 -0.000000 -0.000000 0.917946 0.177627 243 239 141 255
0.409504 0.073344 0.240018 1.000000 -0.000000 -0.000000 1.000000 0.307747 215 208 86 255
0.409503 0.175636 -0.110890 1.000000 -0.000000 0.000000 0.265301 0.169907 253 243 97 255
0.409503 0.158303 -0.139120 1.000000 -0.000000 0.000000 0.206196 0.206196 253 243 86 255
0.409504 0.256787 -0.237604 1.000000 -0.000000 0.000000 0.000000 0.000000 252 247 141 255
0.409504 0.158303 -0.231155 1.000000 0.000000 -0.000000 0.986497 0.769924 205 198 73 255
0.409504 -0.037392 -0.237604 1.000000 0.000000 -0.000000 1.000000 0.307747 167 156 0 255
0.409504 0.158303 -0.237604 1.000000 0.000000 -0.000000 1.000000 0.768251 204 197 73 255
0.409504 0.256787 0.240018 1.000000 0.000000 -0.000000 1.000000 0.000000 252 247 141 255
0.409504 0.256787 -0.237604 1.000000 -0.000000 0.000000 1.000000 1.000000 252 247 141 255
0.409504 -0.037392 -0.218339 1.000000 -0.000000 0.000001 0.959665 0.307747 196 183 0 255
0.409503 -0.037392 -0.139120 1.000000 -0.000000 0.000001 0.793804 0.307747 196 183 0 255
0.409503 -0.122351 -0.139120 1.000000 -0.000000 0.000001 0.793804 0.206196 176 164 0 255
0.409503 -0.184282 -0.105830 1.000000 -0.000001 0.000000 0.724105 0.076530 207 182 6 255
0.409503 -0.122351 0.141534 1.000000 -0.000001 0.000000 0.206196 0.206196 207 182 12 255
0.409503 -0.195211 0.214394 1.000000 -0.000001 0.000000 0.053648 0.053648 207 182 3 255
0.409503 -0.195211 0.214394 1.000000 0.000000 0.000000 0.946352 0.946352 176 155 3 255
0.409503 -0.195612 0.226125 1.000000 0.000000 0.000000 0.970913 0.944141 175 155 4 255
0.409503 -0.220835 0.240018 1.000000 0.000000 0.000000 1.000000 1.000000 128 112 0 255
0.409503 0.099284 0.083199 1.000000 -0.000000 0.000000 0.793804 0.206196 212 205 86 255
0.409503 0.073344 0.141534 1.000000 -0.000000 0.000000 0.793804 0.307747 156 151 62 255
0.409503 0.073344 0.057559 1.000000 -0.000000 0.000000 0.793804 0.206196 154 149 53 255
0.409503 0.175636 -0.110890 1.000000 0.000000 -0.000000 0.265301 0.169907 215 207 83 255
0.409504 0.158303 0.047874 1.000000 0.000000 -0.000000 0.597707 0.206196 156 150 53 255
0.409503 0.158303 -0.139120 1.000000 0.000000 -0.000000 0.206196 0.206196 156 150 53 255
0.409503 -0.195211 0.214394 1.000000 -0.000001 -0.000000 0.946352 0.946352 207 182 3 255
0.409503 -0.122351 0.141534 1.000000 -0.000001 -0.000000 0.793804 0.793804 207 182 12 255
0.409503 -0.195612 0.226125 1.000000 -0.000001 -0.000000 0.970913 0.944141 207 183 5 255
0.409503 -0.122351 0.141534 1.000000 0.000000 -0.000000 0.793804 0.793804 207 182 12 255
0.409503 -0.195612 0.226125 1.000000 -0.000000 0.000000 0.970913 0.944141 207 183 5 255
0.409503 0.073344 0.141534 1.000000 -0.000004 -0.000002 0.793804 0.307747 215 208 86 255
0.409503 0.099284 0.083199 1.000000 -0.000004 -0.000002 0.793804 0.206196 249 241 101 255
0.409504 0.084110 0.133514 1.000000 -0.000004 -0.000002 0.793804 0.285180 223 216 92 255
0.409504 -0.220835 -0.237604 1.000000 0.000000 0.000000 1.000000 0.000000 128 112 3 255
0.409504 -0.154148 -0.210694 1.000000 0.000000 0.000000 0.943657 0.121629 168 151 3 255
0.409504 -0.037392 -0.218339 1.000000 0.000000 0.000000 0.959665 0.307747 167 156 0 255
0.409503 -0.195211 0.214394 1.000000 0.000000 0.000000 0.053648 0.053648 176 155 3 255
0.409504 0.256787 -0.237604 1.000000 -0.000001 0.000000 0.000000 0.000000 252 247 141 255
0.409504 0.256787 0.145150 1.000000 -0.000001 0.000000 0.801375 0.000000 248 243 157 255
0.409503 0.175636 -0.110890 1.000000 -0.000001 0.000000 0.265301 0.169907 253 243 97 255
0.409504 0.256787 0.145150 1.000000 0.000000 -0.000000 0.801375 0.000000 248 243 157 255
0.409504 0.181515 0.070800 1.000000 0.000000 -0.000000 0.645708 0.157599 252 243 103 255
0.409503 -0.142697 -0.159466 1.000000 -0.000000 0.000000 0.836402 0.163598 182 168 1 255
0.409504 -0.037392 -0.218339 1.000000 -0.000000 0.000000 0.959665 0.307747 196 183 0 255
0.409503 -0.142697 -0.159466 1.000000 0.000000 0.000001 0.836402 0.163598 182 168 1 255
0.409504 -0.154148 -0.210694 1.000000 0.000000 0.000001 0.943657 0.121629 197 178 3 255
0.409503 -0.184282 -0.105830 1.000000 0.000000 0.000000 0.724105 0.076530 207 182 6 255
0.409503 -0.122351 -0.044659 1.000000 0.000000 0.000000 0.596029 0.206196 207 182 3 255
0.409503 -0.122351 0.141534 1.000000 0.000000 0.000000 0.206196 0.206196 207 182 12 255
0.409504 0.181515 0.070800 1.000000 0.000000 -0.000000 0.645708 0.157599 214 207 88 255
-0.360632 0.073344 -0.240018 0.000000 0.000000 -1.000000 1.000000 0.307747 215 208 86 255
-0.409503 -0.220835 -0.240018 0.000000 0.000000 -1.000000 1.000000 1.000000 207 182 0 255
-0.409504 0.073344 -0.240018 0.000000 0.000000 -1.000000 1.000000 0.307747 215 208 86 255
0.409503 0.099284 0.083199 0.000000 0.702973 -0.711217 0.793804 0.206196 249 241 101 255
0.360632 0.158303 0.141534 0.000000 0.702973 -0.711217 0.793804 0.206196 253 247 136 255
0.409504 0.158303 0.141534 0.000000 0.702973 -0.711217 0.793804 0.206196 253 247 136 255
0.360632 -0.122351 0.141534 -0.000000 0.000000 -1.000000 0.793804 0.793804 207 182 12 255
0.409503 0.073344 0.141534 -0.000000 0.000000 -1.000000 0.793804 0.307747 215 208 86 255
0.409503 -0.122351 0.141534 -0.000000 0.000000 -1.000000 0.793804 0.793804 207 182 12 255
0.409503 0.073344 0.141534 0.000000 0.597401 0.801943 0.793804 0.307747 215 208 86 255
0.360632 0.084110 0.133514 0.000000 0.597401 0.801943 0.793804 0.285180 223 216 92 255
0.360632 0.073344 0.141534 0.000000 0.597401 0.801943 0.793804 0.307747 215 208 86 255
-0.360632 0.181515 -0.070800 0.000000 -0.702728 -0.711459 0.645708 0.157599 214 207 88 255
-0.409504 0.158303 -0.047874 0.000000 -0.702728 -0.711459 0.597707 0.206196 156 150 53 255
-0.409504 0.181515 -0.070800 0.000000 -0.702728 -0.711459 0.645708 0.157599 214 207 88 255
0.360632 -0.037392 -0.237604 -0.000000 0.000000 -1.000000 1.000000 0.307747 167 156 0 255
0.409504 0.158303 -0.237604 -0.000000 0.000000 -1.000000 1.000000 0.768251 204 197 73 255
0.409504 -0.037392 -0.237604 -0.000000 0.000000 -1.000000 1.000000 0.307747 167 156 0 255
-0.360632 -0.122351 0.139121 0.000000 -0.707106 -0.707108 0.793804 0.206196 176 164 0 255
-0.409503 -0.142697 0.159467 0.000000 -0.707106 -0.707108 0.836402 0.163598 182 168 1 255
-0.409503 -0.122351 0.139121 0.000000 -0.707106 -0.707108 0.793804 0.206196 176 164 0 255
0.409503 0.099284 0.083199 0.000000 0.957407 0.288741 0.793804 0.206196 249 241 101 255
0.360632 0.084110 0.133514 0.000000 0.957407 0.288741 0.793804 0.285180 223 216 92 255
0.409504 0.084110 0.133514 0.000000 0.957407 0.288741 0.793804 0.285180 223 216 92 255
0.360632 0.158303 0.141534 0.000000 0.707107 -0.707107 0.793804 0.206196 253 247 136 255
0.409504 0.256787 0.240018 0.000000 0.707107 -0.707107 1.000000 0.000000 252 247 141 255
0.409504 0.158303 0.141534 0.000000 0.707107 -0.707107 0.793804 0.206196 253 247 136 255
0.409503 -0.142697 -0.159466 0.000000 -0.707107 0.707107 0.836402 0.163598 155 143 1 255
0.360632 -0.220835 -0.237604 0.000000 -0.707107 0.707107 1.000000 0.000000 128 112 3 255
0.409504 -0.220835 -0.237604 0.000000 -0.707107 0.707107 1.000000 0.000000 128 112 3 255
-0.360632 0.158303 -0.047874 0.000000 -1.000000 0.000000 0.597707 0.206196 156 150 53 255
-0.409503 0.158303 0.139121 0.000000 -1.000000 0.000000 0.206196 0.206196 156 150 53 255
-0.409504 0.158303 -0.047874 0.000000 -1.000000 0.000000 0.597707 0.206196 156 150 53 255
0.360632 0.256787 0.240018 0.000000 0.000000 1.000000 1.000000 0.000000 252 247 141 255
0.409504 0.073344 0.240018 0.000000 0.000000 1.000000 1.000000 0.307747 215 208 86 255
0.409504 0.256787 0.240018 0.000000 0.000000 1.000000 1.000000 0.000000 252 247 141 255
0.360632 -0.220835 -0.237604 -0.000000 0.000000 -1.000000 1.000000 0.000000 128 112 3 255
0.409504 -0.220835 -0.237604 -0.000000 0.000000 -1.000000 1.000000 0.000000 128 112 3 255
0.360632 -0.220835 -0.141935 0.000000 0.702728 -0.711459 0.799697 0.000000 128 112 5 255
0.409503 -0.184282 -0.105830 0.000000 0.702728 -0.711459 0.724105 0.076530 176 155 5 255
0.409503 -0.220835 -0.141935 0.000000 0.702728 -0.711459 0.799697 0.000000 128 112 5 255
0.360632 0.158303 -0.237604 -0.000000 0.000000 -1.000000 1.000000 0.768251 204 197 73 255
0.409504 0.256787 -0.237604 -0.000000 0.000000 -1.000000 1.000000 1.000000 252 247 141 255
-0.409503 0.099284 -0.083199 -0.000000 0.702973 0.711217 0.793804 0.206196 249 241 101 255
-0.360632 0.158303 -0.141534 -0.000000 0.702973 0.711217 0.793804 0.206196 253 247 136 255
-0.409504 0.158303 -0.141534 -0.000000 0.702973 0.711217 0.793804 0.206196 253 247 136 255
-0.360632 -0.037392 0.237604 -0.000000 0.000000 1.000000 1.000000 0.307747 167 156 0 255
-0.409503 0.158303 0.237604 -0.000000 0.000000 1.000000 1.000000 0.768251 204 197 73 255
-0.409503 -0.037392 0.237604 -0.000000 0.000000 1.000000 1.000000 0.307747 167 156 0 255
0.360632 0.073344 0.240018 0.000000 0.000000 1.000000 1.000000 0.307747 215 208 86 255
0.409503 -0.220835 0.240018 0.000000 0.000000 1.000000 1.000000 1.000000 207 182 0 255
0.360632 0.073344 0.141534 -0.000000 -1.000000 -0.000000 0.793804 0.307747 156 151 62 255
0.409503 0.073344 0.057559 -0.000000 -1.000000 -0.000000 0.793804 0.206196 154 149 53 255
0.409503 0.073344 0.141534 -0.000000 -1.000000 -0.000000 0.793804 0.307747 156 151 62 255
0.360632 0.256787 -0.237604 0.000000 1.000000 0.000000 0.000000 0.000000 252 247 141 255
0.409504 0.256787 0.145150 0.000000 1.000000 0.000000 0.801375 0.000000 248 243 157 255
0.409504 0.256787 -0.237604 0.000000 1.000000 0.000000 0.000000 0.000000 252 247 141 255
0.360632 -0.037392 -0.055146 0.000000 -0.702973 0.711216 0.793804 0.206196 197 184 1 255
0.409503 -0.122351 -0.139120 0.000000 -0.702973 0.711216 0.793804 0.206196 176 164 0 255
0.409503 -0.037392 -0.055146 0.000000 -0.702973 0.711216 0.793804 0.206196 197 184 1 255
-0.360632 -0.122351 -0.141534 -0.000000 0.000000 1.000000 0.793804 0.793804 207 182 12 255
-0.409503 0.073344 -0.141534 -0.000000 0.000000 1.000000 0.793804 0.307747 215 208 86 255
-0.409503 -0.122351 -0.141534 -0.000000 0.000000 1.000000 0.793804 0.793804 207 182 12 255
-0.360632 0.158303 -0.141534 0.000000 0.707107 0.707107 0.793804 0.206196 253 247 136 255
-0.409504 0.256787 -0.240018 0.000000 0.707107 0.707107 1.000000 0.000000 252 247 141 255
-0.409504 0.158303 -0.141534 0.000000 0.707107 0.707107 0.793804 0.206196 253 247 136 255
-0.360632 -0.220835 0.141935 0.000000 0.702728 0.711459 0.799697 0.000000 128 112 5 255
-0.409503 -0.184282 0.105830 0.000000 0.702728 0.711459 0.724105 0.076530 176 155 5 255
-0.409503 -0.220835 0.141935 0.000000 0.702728 0.711459 0.799697 0.000000 128 112 5 255
0.409503 -0.220835 0.240018 0.000000 -1.000000 0.000000 0.000000 0.000000 128 112 0 255
0.360632 -0.220835 -0.141935 0.000000 -1.000000 0.000000 0.799697 0.000000 128 112 5 255
0.409503 -0.220835 -0.141935 0.000000 -1.000000 0.000000 0.799697 0.000000 128 112 5 255
-0.360632 -0.142697 0.159467 0.000000 -0.707107 -0.707107 0.836402 0.163598 155 143 1 255
-0.409503 -0.220835 0.237604 0.000000 -0.707107 -0.707107 1.000000 0.000000 128 112 3 255
-0.409503 -0.142697 0.159467 0.000000 -0.707107 -0.707107 0.836402 0.163598 155 143 1 255
-0.360632 0.073344 -0.057559 0.000000 0.702973 0.711216 0.793804 0.206196 154 149 53 255
-0.409503 0.099284 -0.083199 0.000000 0.702973 0.711216 0.793804 0.206196 212 205 86 255
-0.409503 0.073344 -0.057559 0.000000 0.702973 0.711216 0.793804 0.206196 154 149 53 255
-0.360632 0.256787 -0.240018 0.000000 0.000000 -1.000000 1.000000 0.000000 252 247 141 255
-0.409504 0.256787 -0.240018 0.000000 0.000000 -1.000000 1.000000 0.000000 252 247 141 255
-0.360632 -0.220835 0.237604 -0.000000 0.000000 1.000000 1.000000 0.000000 128 112 3 255
-0.409503 -0.220835 0.237604 -0.000000 0.000000 1.000000 1.000000 0.000000 128 112 3 255
0.360632 -0.122351 -0.139120 0.000000 -0.707106 0.707108 0.793804 0.206196 176 164 0 255
0.409503 -0.142697 -0.159466 0.000000 -0.707106 0.707108 0.836402 0.163598 182 168 1 255
0.409503 -0.122351 -0.139120 0.000000 -0.707106 0.707108 0.793804 0.206196 176 164 0 255
0.360632 -0.037392 -0.139120 0.000000 1.000000 -0.000000 0.793804 0.307747 196 183 0 255
0.409503 -0.037392 -0.055146 0.000000 1.000000 -0.000000 0.793804 0.206196 197 184 1 255
0.409503 -0.037392 -0.139120 0.000000 1.000000 -0.000000 0.793804 0.307747 196 183 0 255
-0.409503 0.073344 -0.141534 0.000000 0.597401 -0.801943 0.793804 0.307747 215 208 86 255
-0.360632 0.084110 -0.133514 0.000000 0.597401 -0.801943 0.793804 0.285180 223 216 92 255
-0.360632 0.073344 -0.141534 0.000000 0.597401 -0.801943 0.793804 0.307747 215 208 86 255
-0.360632 0.158303 0.237604 -0.000000 0.000000 1.000000 1.000000 0.768251 204 197 73 255
-0.409503 0.256787 0.237604 -0.000000 0.000000 1.000000 1.000000 1.000000 252 247 141 255
-0.409503 0.099284 -0.083199 0.000000 0.957407 -0.288741 0.793804 0.206196 249 241 101 255
-0.360632 0.084110 -0.133514 0.000000 0.957407 -0.288741 0.793804 0.285180 223 216 92 255
-0.409504 0.084110 -0.133514 0.000000 0.957407 -0.288741 0.793804 0.285180 223 216 92 255
-0.360632 0.073344 -0.141534 0.000000 -1.000000 0.000000 0.793804 0.307747 156 151 62 255
-0.409503 0.073344 -0.057559 0.000000 -1.000000 0.000000 0.793804 0.206196 154 149 53 255
-0.409503 0.073344 -0.141534 0.000000 -1.000000 0.000000 0.793804 0.307747 156 151 62 255
-0.360632 -0.037392 0.055146 0.000000 -0.702973 -0.711216 0.793804 0.206196 197 184 1 255
-0.409503 -0.122351 0.139121 0.000000 -0.702973 -0.711216 0.793804 0.206196 176 164 0 255
-0.409503 -0.037392 0.055146 0.000000 -0.702973 -0.711216 0.793804 0.206196 197 184 1 255
0.360632 -0.184282 -0.105830 0.000000 0.702732 -0.711455 0.724105 0.076530 207 182 6 255
0.409503 -0.122351 -0.044659 0.000000 0.702732 -0.711455 0.596029 0.206196 207 182 3 255
0.409503 -0.184282 -0.105830 0.000000 0.702732 -0.711455 0.724105 0.076530 207 182 6 255
-0.360632 -0.220835 -0.240018 0.000000 -1.000000 0.000000 0.000000 0.000000 128 112 0 255
-0.409503 -0.220835 0.141935 0.000000 -1.000000 0.000000 0.799697 0.000000 128 112 5 255
-0.409503 -0.220835 -0.240018 0.000000 -1.000000 0.000000 0.000000 0.000000 128 112 0 255
0.360632 0.158303 -0.139120 0.000000 0.000000 1.000000 0.793804 0.793804 253 243 86 255
0.409503 -0.037392 -0.139120 0.000000 0.000000 1.000000 0.793804 0.307747 196 183 0 255
0.409503 0.158303 -0.139120 0.000000 0.000000 1.000000 0.793804 0.793804 253 243 86 255
0.360632 0.073344 0.057559 0.000000 0.702973 -0.711216 0.793804 0.206196 154 149 53 255
0.409503 0.099284 0.083199 0.000000 0.702973 -0.711216 0.793804 0.206196 212 205 86 255
0.409503 0.073344 0.057559 0.000000 0.702973 -0.711216 0.793804 0.206196 154 149 53 255
0.360632 -0.122351 -0.044659 0.000000 1.000000 -0.000000 0.596029 0.206196 207 182 3 255
0.409503 -0.122351 0.141534 0.000000 1.000000 -0.000000 0.206196 0.206196 207 182 12 255
0.409503 -0.122351 -0.044659 0.000000 1.000000 -0.000000 0.596029 0.206196 207 182 3 255
-0.360632 -0.037392 0.139120 -0.000000 1.000000 0.000000 0.793804 0.307747 196 183 0 255
-0.409503 -0.037392 0.055146 -0.000000 1.000000 0.000000 0.793804 0.206196 197 184 1 255
-0.409503 -0.037392 0.139120 -0.000000 1.000000 0.000000 0.793804 0.307747 196 183 0 255
0.360632 0.181515 0.070800 0.000000 -0.702728 0.711459 0.645708 0.157599 214 207 88 255
0.409504 0.158303 0.047874 0.000000 -0.702728 0.711459 0.597707 0.206196 156 150 53 255
0.409504 0.181515 0.070800 0.000000 -0.702728 0.711459 0.645708 0.157599 214 207 88 255
-0.360632 0.256787 0.237604 -0.000000 1.000000 0.000000 0.000000 0.000000 252 247 141 255
-0.409504 0.256787 -0.145150 -0.000000 1.000000 0.000000 0.801375 0.000000 248 243 157 255
-0.409503 0.256787 0.237604 -0.000000 1.000000 0.000000 0.000000 0.000000 252 247 141 255
0.360632 0.158303 0.047874 -0.000000 -1.000000 0.000000 0.597707 0.206196 156 150 53 255
0.409503 0.158303 -0.139120 -0.000000 -1.000000 0.000000 0.206196 0.206196 156 150 53 255
0.409504 0.158303 0.047874 -0.000000 -1.000000 0.000000 0.597707 0.206196 156 150 53 255
-0.360632 -0.184282 0.105830 0.000000 0.702732 0.711455 0.724105 0.076530 207 182 6 255
-0.409503 -0.122351 0.044659 0.000000 0.702732 0.711455 0.596029 0.206196 207 182 3 255
-0.409503 -0.184282 0.105830 0.000000 0.702732 0.711455 0.724105 0.076530 207 182 6 255
-0.360632 0.158303 0.139121 0.000000 0.000000 -1.000000 0.793804 0.793804 253 243 86 255
-0.409503 -0.037392 0.139120 0.000000 0.000000 -1.000000 0.793804 0.307747 196 183 0 255
-0.409503 0.158303 0.139121 0.000000 0.000000 -1.000000 0.793804 0.793804 253 243 86 255
-0.360632 0.256787 -0.145150 0.000000 -0.702732 -0.711455 0.801375 0.000000 248 243 157 255
-0.409504 0.181515 -0.070800 0.000000 -0.702732 -0.711455 0.645708 0.157599 252 243 103 255
-0.409504 0.256787 -0.145150 0.000000 -0.702732 -0.711455 0.801375 0.000000 248 243 157 255
0.360632 0.256787 0.145150 0.000000 -0.702732 0.711455 0.801375 0.000000 248 243 157 255
0.409504 0.181515 0.070800 0.000000 -0.702732 0.711455 0.645708 0.157599 252 243 103 255
0.409504 0.256787 0.145150 0.000000 -0.702732 0.711455 0.801375 0.000000 248 243 157 255
-0.360632 -0.122351 0.044659 -0.000000 1.000000 0.000000 0.596029 0.206196 207 182 3 255
-0.409503 -0.122351 -0.141534 -0.000000 1.000000 0.000000 0.206196 0.206196 207 182 12 255
-0.409503 -0.122351 0.044659 -0.000000 1.000000 0.000000 0.596029 0.206196 207 182 3 255
-0.360632 -0.220835 -0.240018 0.000000 0.000000 -1.000000 1.000000 1.000000 207 182 0 255
0.360632 0.099284 0.083199 0.000000 0.702973 -0.711217 0.793804 0.206196 249 241 101 255
0.360632 0.073344 0.141534 -0.000000 -0.000000 -1.000000 0.793804 0.307747 215 208 86 255
0.409504 0.084110 0.133514 -0.000000 0.597401 0.801943 0.793804 0.285180 223 216 92 255
-0.360632 0.158303 -0.047874 0.000000 -0.702728 -0.711459 0.597707 0.206196 156 150 53 255
-0.360632 -0.142697 0.159467 0.000000 -0.707106 -0.707108 0.836402 0.163598 182 168 1 255
0.360632 0.099284 0.083199 -0.000000 0.957407 0.288741 0.793804 0.206196 249 241 101 255
0.360632 0.256787 0.240018 0.000000 0.707107 -0.707107 1.000000 0.000000 252 247 141 255
0.360632 -0.142697 -0.159466 0.000000 -0.707107 0.707107 0.836402 0.163598 155 143 1 255
-0.360632 0.158303 0.139121 0.000000 -1.000000 -0.000000 0.206196 0.206196 156 150 53 255
0.360632 -0.184282 -0.105830 0.000000 0.702728 -0.711459 0.724105 0.076530 176 155 5 255
0.360632 0.256787 -0.237604 -0.000000 -0.000000 -1.000000 1.000000 1.000000 252 247 141 255
-0.360632 0.099284 -0.083199 0.000000 0.702973 0.711217 0.793804 0.206196 249 241 101 255
0.360632 -0.220835 0.240018 0.000000 -0.000000 1.000000 1.000000 1.000000 207 182 0 255
0.360632 0.073344 0.057559 0.000000 -1.000000 0.000000 0.793804 0.206196 154 149 53 255
0.360632 0.256787 0.145150 0.000000 1.000000 0.000000 0.801375 0.000000 248 243 157 255
0.360632 -0.122351 -0.139120 0.000000 -0.702973 0.711216 0.793804 0.206196 176 164 0 255
-0.360632 0.073344 -0.141534 -0.000000 0.000000 1.000000 0.793804 0.307747 215 208 86 255
-0.360632 0.256787 -0.240018 -0.000000 0.707107 0.707107 1.000000 0.000000 252 247 141 255
-0.360632 -0.184282 0.105830 -0.000000 0.702728 0.711459 0.724105 0.076530 176 155 5 255
0.360632 -0.220835 0.240018 0.000000 -1.000000 0.000000 0.000000 0.000000 128 112 0 255
-0.360632 -0.220835 0.237604 0.000000 -0.707107 -0.707107 1.000000 0.000000 128 112 3 255
-0.360632 0.099284 -0.083199 -0.000000 0.702973 0.711216 0.793804 0.206196 212 205 86 255
0.360632 -0.142697 -0.159466 0.000000 -0.707106 0.707108 0.836402 0.163598 182 168 1 255
0.360632 -0.037392 -0.055146 0.000000 1.000000 0.000000 0.793804 0.206196 197 184 1 255
-0.409504 0.084110 -0.133514 0.000000 0.597401 -0.801943 0.793804 0.285180 223 216 92 255
-0.360632 0.256787 0.237604 -0.000000 0.000000 1.000000 1.000000 1.000000 252 247 141 255
-0.360632 0.099284 -0.083199 0.000000 0.957407 -0.288741 0.793804 0.206196 249 241 101 255
-0.360632 0.073344 -0.057559 0.000000 -1.000000 0.000000 0.793804 0.206196 154 149 53 255
-0.360632 -0.122351 0.139121 0.000000 -0.702973 -0.711216 0.793804 0.206196 176 164 0 255
0.360632 -0.122351 -0.044659 0.000000 0.702732 -0.711455 0.596029 0.206196 207 182 3 255
-0.360632 -0.220835 0.141935 0.000000 -1.000000 0.000000 0.799697 0.000000 128 112 5 255
0.360632 -0.037392 -0.139120 0.000000 0.000000 1.000000 0.793804 0.307747 196 183 0 255
0.360632 0.099284 0.083199 0.000000 0.702973 -0.711216 0.793804 0.206196 212 205 86 255
0.360632 -0.122351 0.141534 0.000000 1.000000 0.000000 0.206196 0.206196 207 182 12 255
-0.360632 -0.037392 0.055146 0.000000 1.000000 0.000000 0.793804 0.206196 197 184 1 255
0.360632 0.158303 0.047874 0.000000 -0.702728 0.711459 0.597707 0.206196 156 150 53 255
-0.360632 0.256787 -0.145150 0.000000 1.000000 0.000000 0.801375 0.000000 248 243 157 255
0.360632 0.158303 -0.139120 0.000000 -1.000000 0.000000 0.206196 0.206196 156 150 53 255
-0.360632 -0.122351 0.044659 -0.000000 0.702732 0.711455 0.596029 0.206196 207 182 3 255
-0.360632 -0.037392 0.139120 0.000000 0.000000 -1.000000 0.793804 0.307747 196 183 0 255
-0.360632 0.181515 -0.070800 0.000000 -0.702732 -0.711455 0.645708 0.157599 252 243 103 255
0.360632 0.181515 0.070800 0.000000 -0.702732 0.711455 0.645708 0.157599 252 243 103 255
-0.360632 -0.122351 -0.141534 0.000000 1.000000 0.000000 0.206196 0.206196 207 182 12 255
3 0 1 2
3 0 2 3
3 4 5 6
3 4 6 7
3 8 9 10
3 8 11 12
3 13 14 15
3 16 17 18
3 19 20 21
3 19 21 22
3 23 24 25
3 26 27 28
3 29 30 31
3 29 31 32
3 33 34 35
3 33 35 36
3 37 38 39
3 37 39 40
3 38 41 42
3 38 42 39
3 43 44 45
3 43 45 46
3 41 47 48
3 41 48 42
3 44 49 50
3 44 50 45
3 51 43 46
3 51 46 52
3 47 53 54
3 47 54 48
3 49 55 56
3 49 56 50
3 57 58 59
3 57 59 60
3 53 57 60
3 53 60 54
3 61 51 52
3 61 52 62
3 63 61 62
3 63 62 64
3 58 65 66
3 58 66 59
3 67 63 64
3 67 64 68
3 55 67 68
3 55 68 56
3 65 37 40
3 65 40 66
3 69 70 71
3 69 72 73
3 74 75 76
3 74 77 78
3 79 80 81
3 81 74 79
3 82 83 84
3 84 69 82
3 85 86 79
3 85 79 74
3 73 87 88
3 73 88 69
3 88 89 82
3 88 82 69
3 78 90 85
3 78 85 74
3 91 92 93
3 91 93 94
3 95 96 97
3 95 97 98
3 99 100 101
3 99 101 102
3 103 104 105
3 106 107 108
3 109 91 94
3 109 94 110
3 111 112 113
3 114 115 116
3 117 99 102
3 117 102 118
3 119 120 121
3 119 121 122
3 123 124 125
3 123 125 126
3 127 128 129
3 127 129 130
3 131 132 133
3 131 133 134
3 135 136 137
3 135 137 138
3 139 140 141
3 139 141 142
3 143 144 145
3 143 145 146
3 147 148 149
3 147 149 150
3 151 152 153
3 151 153 154
3 155 156 157
3 155 157 158
3 159 160 161
3 159 161 162
3 163 164 165
3 166 165 167
3 168 166 167
3 164 169 165
3 75 170 171
3 76 171 172
3 77 172 173
3 81 174 170
3 170 175 164
3 171 164 163
3 172 163 166
3 173 166 168
3 176 177 178
3 179 180 177
3 181 178 182
3 183 184 180
3 180 185 186
3 178 186 187
3 177 180 186
3 182 178 187
3 71 179 176
3 70 183 179
3 72 176 181
3 84 188 183
3 189 190 191
3 12 192 8
3 192 193 8
3 23 25 194
3 28 195 26
3 196 197 23
3 69 71 72
3 74 76 77
3 81 75 74
3 84 70 69
3 166 163 165
3 164 175 169
3 75 81 170
3 76 75 171
3 77 76 172
3 81 80 174
3 170 174 175
3 171 170 164
3 172 171 163
3 173 172 166
3 176 179 177
3 179 183 180
3 181 176 178
3 183 188 184
3 180 184 185
3 178 177 186
3 71 70 179
3 70 84 183
3 72 71 176
3 84 83 188
3 198 199 200
3 201 202 203
3 204 205 206
3 207 208 209
3 210 211 212
3 213 214 215
3 216 198 207
3 217 218 219
3 220 221 222
3 223 198 216
3 206 220 222
3 224 202 201
3 224 204 202
3 225 226 227
3 228 229 230
3 231 232 233
3 234 235 236
3 237 238 200
3 207 198 238
3 238 198 200
3 239 240 241
3 212 221 210
3 221 242 210
3 213 243 214
3 207 209 216
3 219 244 217
3 244 245 217
3 220 242 221
3 216 209 223
3 201 246 224
3 246 247 224
3 224 205 204
3 225 248 226
3 234 249 235
3 250 251 252
3 253 254 255
3 256 257 258
3 259 260 261
3 262 263 264
3 265 266 267
3 268 269 259
3 270 271 272
3 273 274 275
3 276 269 268
3 277 273 275
3 278 279 280
3 278 256 279
3 281 282 283
3 284 285 286
3 287 288 289
3 290 291 292
3 293 294 295
3 259 269 296
3 296 269 297
3 298 299 300
3 301 274 302
3 274 303 302
3 265 304 266
3 259 261 268
3 305 306 307
3 308 309 270
3 273 303 274
3 268 261 276
3 253 310 311
3 312 313 278
3 278 257 256
3 314 315 316
3 290 317 291
3 318 319 320
3 321 322 323
3 324 325 326
3 327 328 329
3 330 331 332
3 333 334 335
3 336 337 338
3 339 340 341
3 342 343 344
3 345 346 347
3 348 349 350
3 351 352 353
3 354 335 355
3 356 357 358
3 359 360 334
3 361 362 363
3 364 365 366
3 367 368 352
3 369 370 371
3 372 373 374
3 375 376 377
3 378 379 380
3 381 382 383
3 384 385 386
3 387 388 389
3 390 391 392
3 393 394 395
3 396 320 397
3 398 366 399
3 400 401 402
3 403 404 405
3 406 407 408
3 409 410 365
3 411 412 413
3 414 415 416
3 417 418 419
3 420 421 422
3 423 424 425
3 426 427 428
3 429 430 431
3 432 433 434
3 435 436 437
3 438 439 440
3 441 442 443
3 444 445 446
3 447 448 449
3 450 451 452
3 453 454 455
3 456 457 458
3 459 460 461
3 318 462 319
3 321 463 322
3 324 464 325
3 327 465 328
3 330 466 331
3 333 359 334
3 336 467 337
3 339 468 340
3 342 469 343
3 345 470 346
3 348 471 349
3 351 367 352
3 354 333 335
3 356 472 357
3 359 473 360
3 361 474 362
3 364 409 365
3 367 475 368
3 369 476 370
3 372 477 373
3 375 478 376
3 378 479 379
3 381 480 382
3 384 481 385
3 387 482 388
3 390 483 391
3 393 484 394
3 396 318 320
3 398 364 366
3 400 485 401
3 403 486 404
3 406 487 407
3 409 488 410
3 411 489 412
3 414 490 415
3 417 491 418
3 420 492 421
3 423 493 424
3 426 494 427
3 429 495 430
3 432 496 433
3 435 497 436
3 438 498 439
3 441 499 442
3 444 500 445
3 447 501 448
3 450 502 451
3 453 503 454
3 456 504 457
3 459 505 460
