ply
format ascii 1.0
comment Created by Blender 2.80 (sub 75) - www.blender.org, source file: 'timeline_controls.blend'
element vertex 21
property float x
property float y
property float z
property float nx
property float ny
property float nz
property float s
property float t
property uchar red
property uchar green
property uchar blue
property uchar alpha
element face 23
property list uchar uint vertex_indices
end_header
0.001392 -0.384722 0.000000 0.000000 0.000000 1.000000 0.000000 0.502660 158 166 157 255
0.060749 -0.384722 0.000000 0.000000 0.000000 1.000000 1.000000 0.502660 158 166 157 255
0.060749 -0.214878 0.000000 0.000000 0.000000 1.000000 1.000000 0.754228 243 255 241 255
0.001392 -0.214878 0.000000 -0.000000 0.000000 1.000000 0.000000 0.754228 243 255 241 255
0.001392 -0.634324 0.000000 0.000000 0.000000 1.000000 0.000000 0.297957 136 143 135 255
0.060749 -0.634324 0.000000 0.000000 0.000000 1.000000 1.000000 0.297957 136 143 135 255
0.074978 -0.384722 0.000000 -0.000000 0.000000 1.000000 1.000000 0.502660 60 63 60 255
0.074978 -0.214878 0.000000 -0.000000 0.000000 1.000000 1.000000 0.754228 92 97 92 255
0.064201 -0.214878 0.000000 -0.000000 0.000000 1.000000 1.000000 0.754228 92 97 92 255
0.064201 -0.384722 0.000000 -0.000000 0.000000 1.000000 1.000000 0.502660 60 63 60 255
0.064201 -0.001273 0.000000 0.000000 -0.000000 1.000000 1.000000 1.000000 92 97 92 255
0.074978 -0.001273 0.000000 0.000000 0.000000 1.000000 1.000000 1.000000 92 97 92 255
0.060749 -0.001273 0.000000 0.000000 0.000000 1.000000 1.000000 1.000000 243 255 241 255
0.001392 -0.001273 0.000000 -0.000000 0.000000 1.000000 0.000000 1.000000 243 255 241 255
0.122605 -0.001273 0.000000 0.000000 -0.000000 1.000000 1.000000 1.000000 243 255 241 255
0.122605 -0.214878 0.000000 0.000000 -0.000000 1.000000 1.000000 0.698358 243 255 241 255
0.266698 -0.214878 0.000000 0.000000 -0.000000 1.000000 1.000000 0.502660 243 255 241 255
0.266698 -0.001273 0.000000 0.000000 0.000000 1.000000 1.000000 1.000000 243 255 241 255
0.122605 -0.347002 0.000000 0.000000 0.000000 1.000000 1.000000 0.502660 212 222 210 255
0.001392 -0.997635 0.000000 0.000000 0.000000 1.000000 0.000000 0.000000 103 108 102 255
0.060749 -0.997635 0.000000 0.000000 0.000000 1.000000 1.000000 0.000000 103 108 102 255
3 0 1 2
3 0 2 3
3 4 5 1
3 4 1 0
3 6 7 8
3 6 8 9
3 10 8 7
3 10 7 11
3 3 2 12
3 3 12 13
3 14 15 16
3 14 16 17
3 16 15 18
3 8 10 12
3 8 12 2
3 9 8 2
3 9 2 1
3 11 7 15
3 11 15 14
3 7 6 18
3 7 18 15
3 19 20 5
3 19 5 4
