ply
format ascii 1.0
comment Created by Blender 2.80 (sub 75) - www.blender.org, source file: 'timeline_controls.blend'
element vertex 19
property float x
property float y
property float z
property float nx
property float ny
property float nz
property float s
property float t
property uchar red
property uchar green
property uchar blue
property uchar alpha
element face 21
property list uchar uint vertex_indices
end_header
-0.000945 -0.566291 0.000000 0.000000 0.000000 1.000000 0.000000 0.502660 182 186 177 255
0.099726 -0.566291 0.000000 0.000000 0.000000 1.000000 1.000000 0.502660 176 179 171 255
0.099726 -0.315790 0.000000 0.000000 0.000000 1.000000 1.000000 0.754228 202 207 196 255
-0.000945 -0.315790 0.000000 -0.000000 0.000000 1.000000 0.000000 0.754228 213 218 207 255
-0.000945 -0.996502 0.000000 0.000000 0.000000 1.000000 0.000000 0.000000 156 159 151 255
0.099726 -0.996502 0.000000 0.000000 0.000000 1.000000 1.000000 0.000000 156 159 151 255
0.121434 -0.566291 0.000000 -0.000000 0.000000 1.000000 1.000000 0.502660 77 79 75 255
0.121434 -0.315790 0.000000 -0.000000 0.000000 1.000000 1.000000 0.754228 87 89 84 255
0.103989 -0.315790 0.000000 -0.000000 0.000000 1.000000 1.000000 0.754228 87 89 84 255
0.103989 -0.566291 0.000000 -0.000000 0.000000 1.000000 1.000000 0.502660 75 77 73 255
0.103989 -0.000745 0.000000 0.000000 -0.000000 1.000000 1.000000 1.000000 102 104 99 255
0.121434 -0.000745 0.000000 0.000000 0.000000 1.000000 1.000000 1.000000 102 104 99 255
0.099726 -0.000745 0.000000 0.000000 0.000000 1.000000 1.000000 1.000000 249 255 242 255
-0.000945 -0.000745 0.000000 -0.000000 0.000000 1.000000 0.000000 1.000000 249 255 242 255
0.198523 -0.000745 0.000000 0.000000 -0.000000 1.000000 1.000000 1.000000 249 255 242 255
0.198523 -0.315790 0.000000 0.000000 -0.000000 1.000000 1.000000 0.698358 213 218 207 255
0.431750 -0.315790 0.000000 0.000000 -0.000000 1.000000 1.000000 0.502660 213 218 207 255
0.431750 -0.000745 0.000000 0.000000 0.000000 1.000000 1.000000 1.000000 249 255 242 255
0.198523 -0.510658 0.000000 0.000000 0.000000 1.000000 1.000000 0.502660 183 187 178 255
3 0 1 2
3 0 2 3
3 4 5 1
3 4 1 0
3 6 7 8
3 6 8 9
3 10 8 7
3 10 7 11
3 3 2 12
3 3 12 13
3 14 15 16
3 14 16 17
3 16 15 18
3 8 10 12
3 8 12 2
3 9 8 2
3 9 2 1
3 11 7 15
3 11 15 14
3 7 6 18
3 7 18 15
