ply
format ascii 1.0
comment Created by Blender 2.82 (sub 7) - www.blender.org, source file: 'loop_logo.blend'
element vertex 52
property float x
property float y
property float z
property float nx
property float ny
property float nz
property float s
property float t
property uchar red
property uchar green
property uchar blue
property uchar alpha
element face 34
property list uchar uint vertex_indices
end_header
-0.498855 0.115658 0.000000 0.000000 -0.000000 1.000000 1.000000 0.307747 215 208 86 255
-0.498855 -0.498855 0.000000 0.000000 -0.000000 1.000000 1.000000 1.000000 207 182 0 255
-0.469834 -0.446166 0.000000 0.000000 -0.000000 1.000000 0.970913 0.944141 207 183 5 255
0.293131 -0.293131 0.000000 -0.000000 0.000000 1.000000 0.793804 0.206196 176 164 0 255
0.293131 -0.115658 0.000000 -0.000000 0.000000 1.000000 0.793804 0.307747 196 183 0 255
0.117715 -0.115658 0.000000 -0.000000 0.000000 1.000000 0.793804 0.206196 197 184 1 255
0.293131 0.293131 0.000000 0.000000 0.000000 1.000000 0.793804 0.793804 253 243 86 255
0.485383 0.293131 0.000000 0.000000 0.000000 1.000000 0.986497 0.769924 241 233 86 255
0.498855 0.498855 0.000000 0.000000 0.000000 1.000000 1.000000 1.000000 252 247 141 255
-0.293131 0.115658 0.000000 0.000000 0.000000 1.000000 0.793804 0.307747 215 208 86 255
-0.171274 0.169845 0.000000 0.000000 0.000000 1.000000 0.793804 0.206196 249 241 101 255
-0.293131 0.293131 0.000000 0.000000 0.000000 1.000000 0.793804 0.206196 253 247 136 255
0.442641 -0.359551 0.000000 -0.000000 -0.000000 1.000000 0.943657 0.121629 168 151 3 255
0.335632 -0.335632 0.000000 -0.000000 -0.000000 1.000000 0.836402 0.163598 155 143 1 255
0.498855 -0.498855 0.000000 -0.000000 -0.000000 1.000000 1.000000 0.000000 128 112 3 255
0.223591 -0.422499 0.000000 0.000000 -0.000000 1.000000 0.724105 0.076530 176 155 5 255
-0.498855 -0.498855 0.000000 0.000000 -0.000000 1.000000 0.000000 0.000000 128 112 0 255
0.299010 -0.498855 0.000000 0.000000 -0.000000 1.000000 0.799697 0.000000 128 112 5 255
-0.416988 0.293131 0.000000 -0.000000 0.000000 1.000000 0.917946 0.177627 243 239 141 255
0.234161 0.329337 0.000000 0.000000 0.000000 1.000000 0.265301 0.169907 253 243 97 255
0.293131 0.293131 0.000000 0.000000 0.000000 1.000000 0.206196 0.206196 253 243 86 255
0.498855 0.498855 0.000000 0.000000 0.000000 1.000000 0.000000 0.000000 252 247 141 255
0.485383 0.293131 0.000000 0.000000 0.000000 1.000000 0.986497 0.769924 205 198 73 255
0.498855 -0.115658 0.000000 0.000000 0.000000 1.000000 1.000000 0.307747 167 156 0 255
0.498855 0.293131 0.000000 0.000000 0.000000 1.000000 1.000000 0.768251 204 197 73 255
-0.498855 0.498855 0.000000 -0.000000 0.000000 1.000000 1.000000 0.000000 252 247 141 255
0.458612 -0.115658 0.000000 0.000000 0.000000 1.000000 0.959665 0.307747 196 183 0 255
0.223591 -0.422499 0.000000 -0.000000 0.000000 1.000000 0.724105 0.076530 207 182 6 255
-0.293131 -0.293131 0.000000 -0.000000 0.000000 1.000000 0.206196 0.206196 207 182 12 255
-0.445329 -0.445329 0.000000 -0.000000 0.000000 1.000000 0.053648 0.053648 207 182 3 255
-0.445329 -0.445329 0.000000 0.000000 0.000000 1.000000 0.946352 0.946352 176 155 3 255
-0.469834 -0.446166 0.000000 0.000000 0.000000 1.000000 0.970913 0.944141 175 155 4 255
-0.498855 -0.498855 0.000000 0.000000 0.000000 1.000000 1.000000 1.000000 128 112 0 255
-0.171274 0.169845 0.000000 0.000000 -0.000000 1.000000 0.793804 0.206196 212 205 86 255
-0.293131 0.115658 0.000000 0.000000 -0.000000 1.000000 0.793804 0.307747 156 151 62 255
-0.117715 0.115658 0.000000 0.000000 -0.000000 1.000000 0.793804 0.206196 154 149 53 255
0.234161 0.329337 0.000000 0.000000 -0.000000 1.000000 0.265301 0.169907 215 207 83 255
-0.097483 0.293131 0.000000 0.000000 -0.000000 1.000000 0.597707 0.206196 156 150 53 255
0.293131 0.293131 0.000000 0.000000 -0.000000 1.000000 0.206196 0.206196 156 150 53 255
-0.445329 -0.445329 0.000000 -0.000000 0.000000 1.000000 0.946352 0.946352 207 182 3 255
-0.293131 -0.293131 0.000000 -0.000000 0.000000 1.000000 0.793804 0.793804 207 182 12 255
-0.293131 0.115658 0.000000 0.000000 0.000000 -1.000000 0.793804 0.307747 215 208 86 255
-0.276378 0.138147 0.000000 0.000000 0.000000 -1.000000 0.793804 0.285180 223 216 92 255
-0.171274 0.169845 0.000000 0.000000 0.000000 -1.000000 0.793804 0.206196 249 241 101 255
0.458612 -0.115658 0.000000 0.000000 0.000000 1.000000 0.959665 0.307747 167 156 0 255
-0.445329 -0.445329 0.000000 0.000000 0.000000 1.000000 0.053648 0.053648 176 155 3 255
-0.300684 0.498855 0.000000 0.000000 -0.000000 1.000000 0.801375 0.000000 248 243 157 255
-0.145374 0.341617 0.000000 0.000000 0.000000 1.000000 0.645708 0.157599 252 243 103 255
0.335632 -0.335632 0.000000 0.000000 0.000000 1.000000 0.836402 0.163598 182 168 1 255
0.442641 -0.359551 0.000000 0.000000 0.000000 1.000000 0.943657 0.121629 197 178 3 255
0.095809 -0.293131 0.000000 0.000000 0.000000 1.000000 0.596029 0.206196 207 182 3 255
-0.145374 0.341617 0.000000 -0.000000 -0.000000 1.000000 0.645708 0.157599 214 207 88 255
3 0 1 2
3 3 4 5
3 6 7 8
3 9 10 11
3 12 13 14
3 15 16 17
3 9 18 0
3 19 20 21
3 22 23 24
3 18 25 0
3 8 22 24
3 26 4 3
3 26 6 4
3 27 28 29
3 30 31 32
3 33 34 35
3 36 37 38
3 39 40 2
3 40 9 0
3 2 40 0
3 41 42 43
3 14 23 12
3 23 44 12
3 15 45 16
3 9 11 18
3 21 46 19
3 46 47 19
3 22 44 23
3 18 11 25
3 3 48 26
3 48 49 26
3 26 7 6
3 27 50 28
3 36 51 37
