ply
format ascii 1.0
comment Created by Blender 2.80 (sub 75) - www.blender.org, source file: 'timeline_controls.blend'
element vertex 43
property float x
property float y
property float z
property float nx
property float ny
property float nz
property float s
property float t
property uchar red
property uchar green
property uchar blue
property uchar alpha
element face 59
property list uchar uint vertex_indices
end_header
-0.335644 -0.067668 0.000000 0.000000 0.000000 1.000000 0.000000 0.502660 182 182 37 255
-0.234973 -0.067668 0.000000 0.000000 0.000000 1.000000 1.000000 0.502660 174 174 35 255
-0.234973 0.182834 0.000000 0.000000 0.000000 1.000000 1.000000 0.754228 255 255 52 255
-0.335644 0.182833 0.000000 -0.000000 0.000000 1.000000 0.000000 0.754228 255 255 52 255
-0.335644 -0.497879 0.000000 0.000000 0.000000 1.000000 0.000000 0.000000 146 146 30 255
-0.234973 -0.497879 0.000000 0.000000 0.000000 1.000000 1.000000 0.000000 146 146 30 255
-0.213264 -0.067668 0.000000 -0.000000 0.000000 1.000000 1.000000 0.502660 53 53 11 255
-0.213264 0.182834 0.000000 -0.000000 0.000000 1.000000 1.000000 0.754228 69 69 14 255
-0.230709 0.182834 0.000000 -0.000000 0.000000 1.000000 1.000000 0.754228 69 69 14 255
-0.230709 -0.067668 0.000000 -0.000000 0.000000 1.000000 1.000000 0.502660 49 49 10 255
-0.230709 0.497879 0.000000 0.000000 -0.000000 1.000000 1.000000 1.000000 69 69 28 255
-0.213264 0.497879 0.000000 0.000000 0.000000 1.000000 1.000000 1.000000 69 69 28 255
-0.234973 0.497879 0.000000 0.000000 0.000000 1.000000 1.000000 1.000000 255 255 102 255
-0.335644 0.497879 0.000000 -0.000000 0.000000 1.000000 0.000000 1.000000 255 255 102 255
-0.136175 0.497879 0.000000 0.000000 -0.000000 1.000000 1.000000 1.000000 255 255 102 255
-0.136175 0.182834 0.000000 0.000000 -0.000000 1.000000 1.000000 0.698358 255 255 52 255
0.097052 0.182834 0.000000 0.000000 -0.000000 1.000000 1.000000 0.502660 255 255 52 255
0.097052 0.497879 0.000000 0.000000 0.000000 1.000000 1.000000 1.000000 255 255 102 255
-0.136175 -0.012035 0.000000 0.000000 0.000000 1.000000 1.000000 0.502660 210 210 43 255
0.404758 -0.207191 0.051150 0.000000 0.000000 1.000000 0.000000 0.000000 209 209 43 255
0.091298 -0.218773 0.051150 0.000000 0.000000 1.000000 0.000000 0.000000 204 204 41 255
0.091298 -0.340806 0.051150 0.000000 0.000000 1.000000 0.000000 0.000000 154 154 31 255
0.147217 -0.340806 0.051150 0.000000 -0.000000 1.000000 0.000000 0.000000 153 153 31 255
0.404758 -0.158725 0.051150 -0.000000 0.000000 1.000000 0.000000 0.000000 255 255 48 255
0.147145 -0.022730 0.051150 -0.000000 0.000000 1.000000 0.000000 0.000000 255 255 95 255
0.091298 -0.022730 0.051150 -0.000000 0.000000 1.000000 0.000000 0.000000 255 255 95 255
0.091298 -0.147236 0.051150 -0.000000 0.000000 1.000000 0.000000 0.000000 255 255 52 255
0.409675 -0.210179 0.051150 0.000000 0.000000 1.000000 0.000000 0.000000 87 87 18 255
0.423815 -0.218773 0.051150 0.000000 0.000000 1.000000 0.000000 0.000000 55 55 11 255
0.423815 -0.147236 0.051150 0.000000 0.000000 1.000000 0.000000 0.000000 69 69 14 255
0.409675 -0.155761 0.051150 -0.000000 0.000000 1.000000 0.000000 0.000000 69 69 13 255
0.148363 -0.017813 0.051150 -0.000000 0.000000 1.000000 0.000000 0.000000 69 69 26 255
0.151866 -0.003673 0.051150 -0.000000 0.000000 1.000000 0.000000 0.000000 69 69 28 255
0.072241 -0.003673 0.051150 -0.000000 0.000000 1.000000 0.000000 0.000000 69 69 28 255
0.086382 -0.017813 0.051150 -0.000000 -0.000000 1.000000 0.000000 0.000000 69 69 26 255
0.086382 -0.345723 0.051150 0.000000 -0.000000 1.000000 0.000000 0.000000 41 41 8 255
0.072241 -0.359863 0.051150 0.000000 -0.000000 1.000000 0.000000 0.000000 40 40 8 255
0.151866 -0.359863 0.051150 0.000000 -0.000000 1.000000 0.000000 0.000000 40 40 8 255
0.148416 -0.345723 0.051150 0.000000 0.000000 1.000000 0.000000 0.000000 41 41 8 255
0.086382 -0.218773 0.051150 0.000000 0.000000 1.000000 0.000000 0.000000 119 119 24 255
0.072241 -0.218773 0.051150 0.000000 0.000000 1.000000 0.000000 0.000000 119 119 24 255
0.072241 -0.147236 0.051150 -0.000000 0.000000 1.000000 0.000000 0.000000 149 149 30 255
0.086382 -0.147236 0.051150 0.000000 -0.000000 1.000000 0.000000 0.000000 149 149 30 255
3 0 1 2
3 0 2 3
3 4 5 1
3 4 1 0
3 6 7 8
3 6 8 9
3 10 8 7
3 10 7 11
3 3 2 12
3 3 12 13
3 14 15 16
3 14 16 17
3 16 15 18
3 8 10 12
3 8 12 2
3 9 8 2
3 9 2 1
3 11 7 15
3 11 15 14
3 7 6 18
3 7 18 15
3 19 20 21
3 19 21 22
3 23 24 25
3 23 25 26
3 20 19 23
3 20 23 26
3 27 28 29
3 27 29 30
3 31 32 33
3 31 33 34
3 35 36 37
3 35 37 38
3 38 37 28
3 38 28 27
3 30 29 32
3 30 32 31
3 39 40 36
3 39 36 35
3 34 33 41
3 34 41 42
3 42 41 40
3 42 40 39
3 19 27 30
3 19 30 23
3 24 31 34
3 24 34 25
3 21 35 38
3 21 38 22
3 22 38 27
3 22 27 19
3 23 30 31
3 23 31 24
3 20 39 35
3 20 35 21
3 25 34 42
3 25 42 26
3 26 42 39
3 26 39 20
