ply
format ascii 1.0
comment Created by Blender 2.80 (sub 75) - www.blender.org, source file: 'timeline_controls.blend'
element vertex 16
property float x
property float y
property float z
property float nx
property float ny
property float nz
property float s
property float t
property uchar red
property uchar green
property uchar blue
property uchar alpha
element face 12
property list uchar uint vertex_indices
end_header
0.131460 0.166667 0.000000 0.000000 0.000000 1.000000 0.666667 0.666667 255 255 255 255
0.394380 0.166667 0.000000 0.000000 0.000000 1.000000 1.000000 0.666667 255 255 255 255
0.394380 0.500000 0.000000 0.000000 0.000000 1.000000 1.000000 1.000000 141 141 141 255
0.131460 0.500000 0.000000 -0.000000 0.000000 1.000000 0.666667 1.000000 141 141 141 255
-0.131460 -0.500000 0.000000 0.000000 0.000000 -1.000000 0.666667 0.000000 141 141 141 255
-0.394380 -0.500000 0.000000 0.000000 0.000000 -1.000000 1.000000 0.000000 141 141 141 255
-0.394380 -0.166667 0.000000 0.000000 0.000000 -1.000000 1.000000 0.333333 255 255 255 255
-0.131460 -0.166667 0.000000 -0.000000 -0.000000 -1.000000 0.666667 0.333333 255 255 255 255
-0.394380 0.166667 0.000000 0.000000 0.000000 -1.000000 1.000000 0.666667 255 255 255 255
-0.131460 0.166667 0.000000 -0.000000 -0.000000 -1.000000 0.666667 0.666667 255 255 255 255
-0.394380 0.500000 0.000000 0.000000 0.000000 -1.000000 1.000000 1.000000 141 141 141 255
-0.131460 0.500000 0.000000 -0.000000 -0.000000 -1.000000 0.666667 1.000000 141 141 141 255
0.131460 -0.500000 0.000000 0.000000 0.000000 1.000000 0.666667 0.000000 141 141 141 255
0.394380 -0.500000 0.000000 0.000000 0.000000 1.000000 1.000000 0.000000 141 141 141 255
0.394380 -0.166667 0.000000 0.000000 0.000000 1.000000 1.000000 0.333333 255 255 255 255
0.131460 -0.166667 0.000000 -0.000000 0.000000 1.000000 0.666667 0.333333 255 255 255 255
3 0 1 2
3 0 2 3
3 4 5 6
3 4 6 7
3 7 6 8
3 7 8 9
3 9 8 10
3 9 10 11
3 12 13 14
3 12 14 15
3 15 14 1
3 15 1 0
