ply
format ascii 1.0
comment Created by Blender 2.80 (sub 75) - www.blender.org, source file: 'timeline_controls.blend'
element vertex 43
property float x
property float y
property float z
property float nx
property float ny
property float nz
property float s
property float t
property uchar red
property uchar green
property uchar blue
property uchar alpha
element face 59
property list uchar uint vertex_indices
end_header
-0.335644 -0.067668 0.000000 0.000000 0.000000 1.000000 0.000000 0.502660 182 182 37 255
-0.234973 -0.067668 0.000000 0.000000 0.000000 1.000000 1.000000 0.502660 174 174 35 255
-0.234973 0.182834 0.000000 0.000000 0.000000 1.000000 1.000000 0.754228 255 255 52 255
-0.335644 0.182833 0.000000 -0.000000 0.000000 1.000000 0.000000 0.754228 255 255 52 255
-0.335644 -0.497879 0.000000 0.000000 0.000000 1.000000 0.000000 0.000000 146 146 30 255
-0.234973 -0.497879 0.000000 0.000000 0.000000 1.000000 1.000000 0.000000 146 146 30 255
-0.213264 -0.067668 0.000000 -0.000000 0.000000 1.000000 1.000000 0.502660 53 53 11 255
-0.213264 0.182834 0.000000 -0.000000 0.000000 1.000000 1.000000 0.754228 69 69 14 255
-0.230709 0.182834 0.000000 -0.000000 0.000000 1.000000 1.000000 0.754228 69 69 14 255
-0.230709 -0.067668 0.000000 -0.000000 0.000000 1.000000 1.000000 0.502660 49 49 10 255
-0.230709 0.497879 0.000000 0.000000 -0.000000 1.000000 1.000000 1.000000 69 69 28 255
-0.213264 0.497879 0.000000 0.000000 0.000000 1.000000 1.000000 1.000000 69 69 28 255
-0.234973 0.497879 0.000000 0.000000 0.000000 1.000000 1.000000 1.000000 255 255 102 255
-0.335644 0.497879 0.000000 -0.000000 0.000000 1.000000 0.000000 1.000000 255 255 102 255
-0.136175 0.497879 0.000000 0.000000 -0.000000 1.000000 1.000000 1.000000 255 255 102 255
-0.136175 0.182834 0.000000 0.000000 -0.000000 1.000000 1.000000 0.698358 255 255 52 255
0.097052 0.182834 0.000000 0.000000 -0.000000 1.000000 1.000000 0.502660 255 255 52 255
0.097052 0.497879 0.000000 0.000000 0.000000 1.000000 1.000000 1.000000 255 255 102 255
-0.136175 -0.012035 0.000000 0.000000 0.000000 1.000000 1.000000 0.502660 210 210 43 255
0.054106 -0.207191 0.051150 0.000000 0.000000 1.000000 0.000000 0.000000 209 209 43 255
0.311647 -0.340806 0.051150 0.000000 0.000000 1.000000 0.000000 0.000000 153 153 31 255
0.367566 -0.340806 0.051150 0.000000 0.000000 1.000000 0.000000 0.000000 154 154 31 255
0.367566 -0.218773 0.051150 0.000000 0.000000 1.000000 0.000000 0.000000 204 204 41 255
0.054106 -0.158725 0.051150 0.000000 0.000000 1.000000 0.000000 0.000000 255 255 48 255
0.367566 -0.147236 0.051150 0.000000 0.000000 1.000000 0.000000 0.000000 255 255 52 255
0.367566 -0.022730 0.051150 0.000000 0.000000 1.000000 0.000000 0.000000 255 255 95 255
0.311719 -0.022730 0.051150 -0.000000 0.000000 1.000000 0.000000 0.000000 255 255 95 255
0.049189 -0.210179 0.051150 0.000000 0.000000 1.000000 0.000000 0.000000 87 87 18 255
0.049189 -0.155761 0.051150 0.000000 0.000000 1.000000 0.000000 0.000000 69 69 13 255
0.035049 -0.147236 0.051150 0.000000 0.000000 1.000000 0.000000 0.000000 69 69 14 255
0.035049 -0.218773 0.051150 -0.000000 0.000000 1.000000 0.000000 0.000000 55 55 11 255
0.310501 -0.017813 0.051150 0.000000 0.000000 1.000000 0.000000 0.000000 69 69 26 255
0.372482 -0.017813 0.051150 0.000000 0.000000 1.000000 0.000000 0.000000 69 69 26 255
0.386623 -0.003673 0.051150 0.000000 0.000000 1.000000 0.000000 0.000000 69 69 28 255
0.306998 -0.003673 0.051150 -0.000000 0.000000 1.000000 0.000000 0.000000 69 69 28 255
0.372482 -0.345723 0.051150 0.000000 0.000000 1.000000 0.000000 0.000000 41 41 8 255
0.310448 -0.345723 0.051150 0.000000 0.000000 1.000000 0.000000 0.000000 41 41 8 255
0.306998 -0.359863 0.051150 0.000000 0.000000 1.000000 0.000000 0.000000 40 40 8 255
0.386623 -0.359863 0.051150 0.000000 -0.000000 1.000000 0.000000 0.000000 40 40 8 255
0.372482 -0.218773 0.051150 0.000000 0.000000 1.000000 0.000000 0.000000 119 119 24 255
0.386623 -0.218773 0.051150 0.000000 0.000000 1.000000 0.000000 0.000000 119 119 24 255
0.372482 -0.147236 0.051150 0.000000 0.000000 1.000000 0.000000 0.000000 149 149 30 255
0.386623 -0.147236 0.051150 0.000000 0.000000 1.000000 0.000000 0.000000 149 149 30 255
3 0 1 2
3 0 2 3
3 4 5 1
3 4 1 0
3 6 7 8
3 6 8 9
3 10 8 7
3 10 7 11
3 3 2 12
3 3 12 13
3 14 15 16
3 14 16 17
3 16 15 18
3 8 10 12
3 8 12 2
3 9 8 2
3 9 2 1
3 11 7 15
3 11 15 14
3 7 6 18
3 7 18 15
3 19 20 21
3 19 21 22
3 23 24 25
3 23 25 26
3 22 24 23
3 22 23 19
3 27 28 29
3 27 29 30
3 31 32 33
3 31 33 34
3 35 36 37
3 35 37 38
3 36 27 30
3 36 30 37
3 28 31 34
3 28 34 29
3 39 35 38
3 39 38 40
3 32 41 42
3 32 42 33
3 41 39 40
3 41 40 42
3 19 23 28
3 19 28 27
3 26 25 32
3 26 32 31
3 21 20 36
3 21 36 35
3 20 19 27
3 20 27 36
3 23 26 31
3 23 31 28
3 22 21 35
3 22 35 39
3 25 24 41
3 25 41 32
3 24 22 39
3 24 39 41
