ply
format ascii 1.0
comment Created by Blender 2.80 (sub 75) - www.blender.org, source file: 'timeline_controls.blend'
element vertex 31
property float x
property float y
property float z
property float nx
property float ny
property float nz
property float s
property float t
property uchar red
property uchar green
property uchar blue
property uchar alpha
element face 39
property list uchar uint vertex_indices
end_header
-0.335644 -0.067668 0.000000 0.000000 0.000000 1.000000 0.000000 0.502660 255 0 12 255
-0.234973 -0.067668 0.000000 0.000000 0.000000 1.000000 1.000000 0.502660 255 0 12 255
-0.234973 0.182834 0.000000 0.000000 0.000000 1.000000 1.000000 0.754228 255 50 62 255
-0.335644 0.182833 0.000000 -0.000000 0.000000 1.000000 0.000000 0.754228 255 50 62 255
-0.335644 -0.497879 0.000000 0.000000 0.000000 1.000000 0.000000 0.000000 133 0 6 255
-0.234973 -0.497879 0.000000 0.000000 0.000000 1.000000 1.000000 0.000000 148 0 7 255
-0.213264 -0.067668 0.000000 -0.000000 0.000000 1.000000 1.000000 0.502660 100 0 5 255
-0.213264 0.182834 0.000000 -0.000000 0.000000 1.000000 1.000000 0.754228 100 20 24 255
-0.230709 0.182834 0.000000 -0.000000 0.000000 1.000000 1.000000 0.754228 100 20 24 255
-0.230709 -0.067668 0.000000 -0.000000 0.000000 1.000000 1.000000 0.502660 125 0 6 255
-0.230709 0.497879 0.000000 0.000000 -0.000000 1.000000 1.000000 1.000000 100 39 44 255
-0.213264 0.497879 0.000000 0.000000 0.000000 1.000000 1.000000 1.000000 100 39 44 255
-0.234973 0.497879 0.000000 0.000000 0.000000 1.000000 1.000000 1.000000 254 100 112 255
-0.335644 0.497879 0.000000 -0.000000 0.000000 1.000000 0.000000 1.000000 255 111 117 255
-0.136175 0.497879 0.000000 0.000000 -0.000000 1.000000 1.000000 1.000000 255 100 112 255
-0.136175 0.182834 0.000000 0.000000 -0.000000 1.000000 1.000000 0.698358 255 50 62 255
0.097052 0.182834 0.000000 0.000000 -0.000000 1.000000 1.000000 0.502660 255 50 62 255
0.097052 0.497879 0.000000 0.000000 0.000000 1.000000 1.000000 1.000000 255 100 112 255
-0.136175 -0.012035 0.000000 0.000000 0.000000 1.000000 1.000000 0.502660 255 0 12 255
0.025871 -0.226323 0.051150 0.000000 0.000000 1.000000 0.000000 0.000000 255 37 40 255
0.411672 -0.226323 0.051150 0.000000 0.000000 1.000000 0.000000 0.000000 255 10 21 255
0.411672 -0.139904 0.051150 0.000000 0.000000 1.000000 0.000000 0.000000 255 76 87 255
0.025871 -0.139904 0.051150 -0.000000 0.000000 1.000000 0.000000 0.000000 255 85 92 255
0.020753 -0.231441 0.051150 0.000000 0.000000 1.000000 0.000000 0.000000 137 18 20 255
0.020753 -0.134786 0.051150 0.000000 0.000000 1.000000 0.000000 0.000000 137 47 51 255
0.014567 -0.128600 0.051150 0.000000 0.000000 1.000000 0.000000 0.000000 137 49 53 255
0.014567 -0.237627 0.051150 -0.000000 0.000000 1.000000 0.000000 0.000000 137 17 18 255
0.416790 -0.134786 0.051150 0.000000 -0.000000 1.000000 0.000000 0.000000 137 43 49 255
0.416790 -0.231441 0.051150 0.000000 -0.000000 1.000000 0.000000 0.000000 137 3 9 255
0.422976 -0.237627 0.051150 0.000000 -0.000000 1.000000 0.000000 0.000000 137 1 6 255
0.422976 -0.128600 0.051150 0.000000 0.000000 1.000000 0.000000 0.000000 137 45 52 255
3 0 1 2
3 0 2 3
3 4 5 1
3 4 1 0
3 6 7 8
3 6 8 9
3 10 8 7
3 10 7 11
3 3 2 12
3 3 12 13
3 14 15 16
3 14 16 17
3 16 15 18
3 8 10 12
3 8 12 2
3 9 8 2
3 9 2 1
3 11 7 15
3 11 15 14
3 7 6 18
3 7 18 15
3 19 20 21
3 19 21 22
3 23 24 25
3 23 25 26
3 27 28 29
3 27 29 30
3 28 23 26
3 28 26 29
3 24 27 30
3 24 30 25
3 19 22 24
3 19 24 23
3 21 20 28
3 21 28 27
3 20 19 23
3 20 23 28
3 22 21 27
3 22 27 24
