ply
format ascii 1.0
comment Created by Blender 2.80 (sub 75) - www.blender.org, source file: 'timeline_controls.blend'
element vertex 56
property float x
property float y
property float z
property float nx
property float ny
property float nz
property float s
property float t
property uchar red
property uchar green
property uchar blue
property uchar alpha
element face 70
property list uchar uint vertex_indices
end_header
-0.560861 0.180689 0.000000 0.000000 0.000000 1.000000 0.000000 0.000000 133 133 133 255
-0.371911 0.038784 0.000000 0.000000 0.000000 1.000000 0.000000 0.000000 255 255 255 255
-0.262442 0.266357 0.000000 0.000000 0.000000 1.000000 0.000000 0.000000 255 255 255 255
-0.490960 0.325841 0.000000 0.000000 0.000000 1.000000 0.000000 0.000000 133 133 133 255
-0.221717 0.173671 0.000000 0.000000 -0.000000 1.000000 0.000000 0.000000 255 255 255 255
-0.275115 0.060253 0.000000 0.000000 -0.000000 1.000000 0.000000 0.000000 255 255 255 255
-0.177851 0.040427 0.000000 0.000000 -0.000000 1.000000 0.000000 0.000000 136 136 136 255
-0.129590 0.103345 0.000000 0.000000 0.000000 1.000000 0.000000 0.000000 133 133 133 255
-0.124396 0.252688 0.000000 0.000000 -0.000000 1.000000 0.000000 0.000000 255 255 255 255
-0.079159 0.164314 0.000000 0.000000 -0.000000 1.000000 0.000000 0.000000 133 133 133 255
-0.208504 0.551126 0.000000 0.000000 0.000000 1.000000 0.000000 0.000000 133 133 133 255
-0.201327 0.315102 0.000000 0.000000 0.000000 1.000000 0.000000 0.000000 255 255 255 255
0.044562 0.371263 0.000000 0.000000 0.000000 1.000000 0.000000 0.000000 255 255 255 255
-0.051443 0.586999 0.000000 0.000000 0.000000 1.000000 0.000000 0.000000 133 133 133 255
-0.002429 0.281654 0.000000 0.000000 -0.000000 1.000000 0.000000 0.000000 255 255 255 255
-0.000025 0.165752 0.000000 0.000000 -0.000000 1.000000 0.000000 0.000000 133 133 133 255
0.120027 0.254832 0.000000 -0.000000 -0.000000 1.000000 0.000000 0.000000 255 255 255 255
0.079086 0.164349 0.000000 0.000000 -0.000000 1.000000 0.000000 0.000000 133 133 133 255
0.300812 0.506681 0.000000 0.000000 -0.000000 1.000000 0.000000 0.000000 133 133 133 255
0.120779 0.353885 0.000000 0.000000 -0.000000 1.000000 0.000000 0.000000 255 255 255 255
0.318020 0.196686 0.000000 0.000000 -0.000000 1.000000 0.000000 0.000000 255 255 255 255
0.426800 0.406271 0.000000 0.000000 0.000000 1.000000 0.000000 0.000000 133 133 133 255
0.218719 0.177534 0.000000 -0.000000 0.000000 1.000000 0.000000 0.000000 255 255 255 255
0.129560 0.103383 0.000000 0.000000 -0.000000 1.000000 0.000000 0.000000 133 133 133 255
0.274099 0.065070 0.000000 -0.000000 0.000000 1.000000 0.000000 0.000000 255 255 255 255
0.177803 0.040638 0.000000 -0.000000 -0.000000 1.000000 0.000000 0.000000 136 136 136 255
0.583681 0.080812 0.000000 -0.000000 -0.000000 1.000000 0.000000 0.000000 133 133 133 255
0.351964 0.126267 0.000000 -0.000000 -0.000000 1.000000 0.000000 0.000000 255 255 255 255
0.352076 -0.125954 0.000000 -0.000000 -0.000000 1.000000 0.000000 0.000000 255 255 255 255
0.583752 -0.080294 0.000000 0.000000 -0.000000 1.000000 0.000000 0.000000 133 133 133 255
0.275199 -0.060284 0.000000 -0.000000 0.000000 1.000000 0.000000 0.000000 255 255 255 255
0.161613 -0.036812 0.000000 -0.000000 0.000000 1.000000 0.000000 0.000000 133 133 133 255
0.221800 -0.173702 0.000000 0.000000 0.000000 1.000000 0.000000 0.000000 255 255 255 255
0.142647 -0.113653 0.000000 -0.000000 0.000000 1.000000 0.000000 0.000000 133 133 133 255
0.427161 -0.405891 0.000000 -0.000000 0.000000 1.000000 0.000000 0.000000 133 133 133 255
0.318194 -0.196403 0.000000 -0.000000 0.000000 1.000000 0.000000 0.000000 255 255 255 255
0.121094 -0.353777 0.000000 -0.000000 0.000000 1.000000 0.000000 0.000000 255 255 255 255
0.301263 -0.506414 0.000000 -0.000000 -0.000000 1.000000 0.000000 0.000000 134 134 134 255
0.124479 -0.252719 0.000000 0.000000 0.000000 1.000000 0.000000 0.000000 255 255 255 255
0.072006 -0.149295 0.000000 -0.000000 0.000000 1.000000 0.000000 0.000000 164 164 164 255
0.002512 -0.281685 0.000000 0.000000 0.000000 1.000000 0.000000 0.000000 255 255 255 255
0.000108 -0.182388 0.000000 -0.000000 0.000000 1.000000 0.000000 0.000000 133 133 133 255
-0.050921 -0.587044 0.000000 0.000000 0.000000 1.000000 0.000000 0.000000 133 133 133 255
0.044837 -0.371230 0.000000 0.000000 0.000000 1.000000 0.000000 0.000000 255 255 255 255
-0.201047 -0.315281 0.000000 0.000000 0.000000 1.000000 0.000000 0.000000 255 255 255 255
-0.208014 -0.551311 0.000000 -0.000000 0.000000 1.000000 0.000000 0.000000 133 133 133 255
-0.119944 -0.254863 0.000000 0.000000 0.000000 1.000000 0.000000 0.000000 255 255 255 255
-0.071807 -0.149391 0.000000 0.000000 0.000000 1.000000 0.000000 0.000000 141 141 141 255
-0.218636 -0.177565 0.000000 0.000000 0.000000 1.000000 0.000000 0.000000 255 255 255 255
-0.142495 -0.113843 0.000000 0.000000 0.000000 1.000000 0.000000 0.000000 133 133 133 255
-0.490670 -0.326277 0.000000 0.000000 0.000000 1.000000 0.000000 0.000000 134 134 134 255
-0.262205 -0.266590 0.000000 0.000000 0.000000 1.000000 0.000000 0.000000 255 255 255 255
-0.371841 -0.039445 0.000000 0.000000 0.000000 1.000000 0.000000 0.000000 255 255 255 255
-0.560700 -0.181188 0.000000 -0.000000 0.000000 1.000000 0.000000 0.000000 133 133 133 255
-0.274016 -0.065102 0.000000 0.000000 0.000000 1.000000 0.000000 0.000000 255 255 255 255
-0.161564 -0.037027 0.000000 0.000000 0.000000 1.000000 0.000000 0.000000 133 133 133 255
3 0 1 2
3 0 2 3
3 4 5 6
3 4 6 7
3 8 4 7
3 8 7 9
3 10 11 12
3 10 12 13
3 14 8 9
3 14 9 15
3 16 14 15
3 16 15 17
3 18 19 20
3 18 20 21
3 22 16 17
3 22 17 23
3 24 22 23
3 24 23 25
3 26 27 28
3 26 28 29
3 30 24 25
3 30 25 31
3 32 30 31
3 32 31 33
3 34 35 36
3 34 36 37
3 38 32 33
3 38 33 39
3 40 38 39
3 40 39 41
3 42 43 44
3 42 44 45
3 46 40 41
3 46 41 47
3 48 46 47
3 48 47 49
3 50 51 52
3 50 52 53
3 54 48 49
3 54 49 55
3 5 54 55
3 5 55 6
3 1 52 54
3 1 54 5
3 52 51 48
3 52 48 54
3 51 44 46
3 51 46 48
3 44 43 40
3 44 40 46
3 43 36 38
3 43 38 40
3 36 35 32
3 36 32 38
3 35 28 30
3 35 30 32
3 28 27 24
3 28 24 30
3 27 20 22
3 27 22 24
3 20 19 16
3 20 16 22
3 19 12 14
3 19 14 16
3 12 11 8
3 12 8 14
3 11 2 4
3 11 4 8
3 2 1 5
3 2 5 4
