ply
format ascii 1.0
comment Created by Blender 2.82 (sub 7) - www.blender.org, source file: 'movement_keys.blend'
element vertex 6
property float x
property float y
property float z
property float nx
property float ny
property float nz
property float s
property float t
property uchar red
property uchar green
property uchar blue
property uchar alpha
element face 4
property list uchar uint vertex_indices
end_header
0.822776 -0.225393 0.000000 -0.000000 0.000000 -1.000000 0.000000 0.000000 255 255 255 255
0.871145 -0.225017 0.000000 -0.000000 0.000000 -1.000000 0.000000 0.000000 255 255 255 255
0.871145 -0.332013 0.000000 -0.000000 0.000000 -1.000000 0.000000 0.000000 212 212 212 255
0.922197 -0.332263 0.000000 0.000000 -0.000000 -1.000000 0.000000 0.000000 212 212 212 255
0.822776 -0.472604 0.000000 0.000000 -0.000000 -1.000000 0.000000 0.000000 163 163 163 255
0.822757 -0.332013 0.000000 -0.000000 -0.000000 -1.000000 0.000000 0.000000 212 212 212 255
3 0 1 2
3 3 4 2
3 4 5 2
3 5 0 2
