ply
format ascii 1.0
comment Created by Blender 2.82 (sub 7) - www.blender.org, source file: 'movement_keys.blend'
element vertex 5
property float x
property float y
property float z
property float nx
property float ny
property float nz
property float s
property float t
property uchar red
property uchar green
property uchar blue
property uchar alpha
element face 3
property list uchar uint vertex_indices
end_header
0.999911 -0.152326 0.000000 -0.000000 0.000000 1.000000 0.000000 0.000000 158 158 158 255
0.887245 -0.101664 0.000000 -0.000000 0.000000 1.000000 0.000000 0.000000 224 224 224 255
0.713387 -0.152326 0.000000 -0.000000 0.000000 1.000000 0.000000 0.000000 168 168 168 255
0.862550 -0.049447 0.000000 -0.000000 -0.000000 1.000000 0.000000 0.000000 255 255 255 255
0.686858 -0.099918 0.000000 -0.000000 -0.000000 1.000000 0.000000 0.000000 224 224 224 255
3 0 1 2
3 0 3 1
3 1 4 2
