ply
format ascii 1.0
comment Created by Blender 2.80 (sub 75) - www.blender.org, source file: 'box.blend'
element vertex 48
property float x
property float y
property float z
property float nx
property float ny
property float nz
property float s
property float t
property uchar red
property uchar green
property uchar blue
property uchar alpha
element face 60
property list uchar uint vertex_indices
end_header
0.778640 1.000125 0.221360 -0.000000 1.000000 0.000000 0.406250 0.031250 254 254 254 255
0.221360 1.000125 0.221360 -0.000000 1.000000 0.000000 0.593750 0.031250 249 249 249 255
0.221360 1.000125 0.778640 -0.000000 1.000000 0.000000 0.593750 0.218750 237 237 237 255
0.778640 1.000125 0.778640 0.000000 1.000000 0.000000 0.406250 0.218750 255 255 255 255
0.778640 0.221360 1.000125 -0.000000 0.000000 1.000000 0.406250 0.281250 255 255 255 255
0.778640 0.778640 1.000125 -0.000000 0.000000 1.000000 0.593750 0.281250 254 254 254 255
0.221360 0.778640 1.000125 -0.000000 0.000000 1.000000 0.593750 0.468750 218 218 218 255
0.221360 0.221360 1.000125 -0.000000 0.000000 1.000000 0.406250 0.468750 239 239 239 255
-0.000125 0.221360 0.778640 -1.000000 0.000000 0.000000 0.406250 0.531250 247 247 247 255
-0.000125 0.778640 0.778640 -1.000000 0.000000 0.000000 0.593750 0.531250 236 236 236 255
-0.000125 0.778640 0.221360 -1.000000 0.000000 0.000000 0.593750 0.718750 248 248 248 255
-0.000125 0.221360 0.221360 -1.000000 0.000000 0.000000 0.406250 0.718750 253 253 253 255
0.221360 -0.000125 0.221360 -0.000000 -1.000000 -0.000000 0.406250 0.781250 252 252 252 255
0.778640 -0.000125 0.221360 -0.000000 -1.000000 -0.000000 0.593750 0.781250 255 255 255 255
0.778640 -0.000125 0.778640 -0.000000 -1.000000 -0.000000 0.593750 0.968750 255 255 255 255
0.221360 -0.000125 0.778640 0.000000 -1.000000 -0.000000 0.406250 0.968750 244 244 244 255
1.000125 0.221360 0.221360 1.000000 0.000000 0.000000 0.156250 0.531250 255 255 255 255
1.000125 0.778640 0.221360 1.000000 0.000000 0.000000 0.343750 0.531250 252 252 252 255
1.000125 0.778640 0.778640 1.000000 0.000000 0.000000 0.343750 0.718750 255 255 255 255
1.000125 0.221360 0.778640 1.000000 -0.000000 0.000000 0.156250 0.718750 255 255 255 255
0.221360 0.221360 -0.000125 -0.000000 -0.000000 -1.000000 0.656250 0.531250 248 248 248 255
0.221360 0.778640 -0.000125 -0.000000 -0.000000 -1.000000 0.843750 0.531250 242 242 242 255
0.778640 0.778640 -0.000125 -0.000000 -0.000000 -1.000000 0.843750 0.718750 255 255 255 255
0.778640 0.221360 -0.000125 -0.000000 0.000000 -1.000000 0.656250 0.718750 255 255 255 255
1.000125 1.000125 -0.000125 -0.000000 1.000000 0.000000 0.375000 0.000000 97 97 97 255
-0.000125 1.000125 -0.000125 -0.000000 1.000000 0.000000 0.625000 0.000000 98 98 98 255
-0.000125 1.000125 1.000125 0.000000 1.000000 0.000000 0.625000 0.250000 97 97 97 255
1.000125 1.000125 1.000125 0.000000 1.000000 -0.000000 0.375000 0.250000 97 97 97 255
1.000125 -0.000125 1.000125 -0.000000 0.000000 1.000000 0.375000 0.250000 97 97 97 255
1.000125 1.000125 1.000125 -0.000000 0.000000 1.000000 0.625000 0.250000 97 97 97 255
-0.000125 1.000125 1.000125 0.000000 -0.000000 1.000000 0.625000 0.500000 97 97 97 255
-0.000125 -0.000125 1.000125 0.000000 -0.000000 1.000000 0.375000 0.500000 97 97 97 255
-0.000125 -0.000125 1.000125 -1.000000 0.000000 0.000000 0.375000 0.500000 97 97 97 255
-0.000125 1.000125 1.000125 -1.000000 0.000000 0.000000 0.625000 0.500000 97 97 97 255
-0.000125 1.000125 -0.000125 -1.000000 0.000000 0.000000 0.625000 0.750000 98 98 98 255
-0.000125 -0.000125 -0.000125 -1.000000 0.000000 -0.000000 0.375000 0.750000 98 98 98 255
-0.000125 -0.000125 -0.000125 -0.000000 -1.000000 -0.000000 0.375000 0.750000 98 98 98 255
1.000125 -0.000125 -0.000125 -0.000000 -1.000000 -0.000000 0.625000 0.750000 101 101 101 255
1.000125 -0.000125 1.000125 0.000000 -1.000000 0.000000 0.625000 1.000000 97 97 97 255
-0.000125 -0.000125 1.000125 0.000000 -1.000000 0.000000 0.375000 1.000000 97 97 97 255
1.000125 -0.000125 -0.000125 1.000000 0.000000 0.000000 0.125000 0.500000 101 101 101 255
1.000125 1.000125 -0.000125 1.000000 0.000000 0.000000 0.375000 0.500000 97 97 97 255
1.000125 1.000125 1.000125 1.000000 -0.000000 0.000000 0.375000 0.750000 97 97 97 255
1.000125 -0.000125 1.000125 1.000000 0.000000 -0.000000 0.125000 0.750000 97 97 97 255
-0.000125 -0.000125 -0.000125 -0.000000 -0.000000 -1.000000 0.625000 0.500000 98 98 98 255
-0.000125 1.000125 -0.000125 -0.000000 -0.000000 -1.000000 0.875000 0.500000 98 98 98 255
1.000125 1.000125 -0.000125 0.000000 0.000000 -1.000000 0.875000 0.750000 97 97 97 255
1.000125 -0.000125 -0.000125 0.000000 0.000000 -1.000000 0.625000 0.750000 101 101 101 255
3 0 1 2
3 0 2 3
3 4 5 6
3 4 6 7
3 8 9 10
3 8 10 11
3 12 13 14
3 12 14 15
3 16 17 18
3 16 18 19
3 20 21 22
3 20 22 23
3 24 25 1
3 24 1 0
3 25 26 2
3 25 2 1
3 26 27 3
3 26 3 2
3 27 24 0
3 27 0 3
3 28 29 5
3 28 5 4
3 29 30 6
3 29 6 5
3 30 31 7
3 30 7 6
3 31 28 4
3 31 4 7
3 32 33 9
3 32 9 8
3 33 34 10
3 33 10 9
3 34 35 11
3 34 11 10
3 35 32 8
3 35 8 11
3 36 37 13
3 36 13 12
3 37 38 14
3 37 14 13
3 38 39 15
3 38 15 14
3 39 36 12
3 39 12 15
3 40 41 17
3 40 17 16
3 41 42 18
3 41 18 17
3 42 43 19
3 42 19 18
3 43 40 16
3 43 16 19
3 44 45 21
3 44 21 20
3 45 46 22
3 45 22 21
3 46 47 23
3 46 23 22
3 47 44 20
3 47 20 23
